<svg xmlns:xlink="http://www.w3.org/1999/xlink" xmlns="http://www.w3.org/2000/svg" width="48" height="48"
     viewBox="0 0 48 48">
    <defs>
        <linearGradient id="b" x1="992.183" x2="1019.298" y1="516.081" y2="545.959"
                        gradientTransform="translate(-1522.705 211.343) scale(1.53785)" gradientUnits="userSpaceOnUse"
                        xlink:href="#a"/>
        <linearGradient id="a">
            <stop offset="0" stop-color="#ff1679"/>
            <stop offset="1" stop-color="#ff770b"/>
        </linearGradient>
    </defs>
    <g transform="translate(0 -1004.362)">
        <rect width="48" height="48" y="1004.362" fill="url(#b)" rx="10.144" ry="10.144"/>
        <path fill="#fff"
              style="line-height:normal;text-indent:0;text-align:start;text-decoration-line:none;text-decoration-style:solid;text-decoration-color:#000;text-transform:none;block-progression:tb;isolation:auto;mix-blend-mode:normal"
              d="m 21.91841,1013.3644 c -0.360468,0 -0.72387,0.022 -1.087891,0.055 -5.824336,0.5271 -10.582966,4.8834 -11.6210935,10.6387 -1.0380924,5.7552 1.8987635,11.5005 7.1718755,14.0293 5.209465,2.4982 11.434799,1.2479 15.285156,-3.0371 0.212583,-0.056 0.423478,-0.1202 0.632812,-0.1954 l 3.902344,6.7598 c 0.411154,0.7122 1.338589,0.9599 2.050781,0.5488 0.712192,-0.4112 0.960012,-1.3365 0.548828,-2.0488 l -3.921875,-6.791 a 0.50005,0.50005 0 0 0 -0.01563,-0.025 c 2.509871,-2.3258 3.183986,-6.1583 1.402344,-9.2441 -0.551704,-0.9556 -1.285075,-1.7399 -2.128906,-2.3438 -1.949537,-5.0822 -6.84329,-8.3828 -12.21875,-8.3457 z m 0.04883,1.002 c 0.08122,-3e-4 0.161226,0.01 0.242187,0.01 0.684568,0.064 1.351592,0.4904 2.019532,1.3105 0.781742,0.96 1.476639,2.4647 1.980468,4.3477 -1.274561,0.2059 -2.635867,0.3231 -4.029296,0.332 -1.515448,0.01 -2.997478,-0.1123 -4.382813,-0.3359 0.206361,-0.7721 0.435712,-1.5051 0.707031,-2.1446 0.783385,-1.8462 1.817321,-3.0443 2.820313,-3.3984 0.216906,-0.077 0.430135,-0.1121 0.642578,-0.1191 z m 2.691406,0.3007 c 2.51637,0.5712 4.77913,1.942 6.453125,3.8965 -1.089782,0.5385 -2.424518,0.9749 -3.917969,1.2832 -0.527441,-2.0146 -1.267924,-3.6633 -2.189453,-4.7949 -0.11129,-0.1366 -0.227619,-0.2628 -0.345703,-0.3848 z m -5.328125,0.01 c -0.679114,0.7124 -1.262867,1.673 -1.748046,2.8164 -0.301819,0.7113 -0.551711,1.5157 -0.773438,2.3594 -1.492609,-0.3073 -2.821492,-0.7491 -3.914062,-1.2891 1.648629,-1.9241 3.889265,-3.3062 6.435546,-3.8867 z m 12.41211,4.6875 c 0.346602,0.4825 0.656305,0.9968 0.93164,1.5352 -0.979118,-0.4115 -2.035261,-0.6235 -3.103516,-0.5957 -0.06112,0 -0.122426,0.013 -0.183593,0.016 0.859679,-0.2697 1.649172,-0.5887 2.355469,-0.9551 z m -19.480469,0 c 1.215321,0.629 2.67574,1.1241 4.296875,1.461 -0.265469,1.251 -0.443061,2.6102 -0.517578,4.041 -0.02621,0.5032 -0.0242,0.999 -0.02539,1.4961 l -6.009766,0 c 3.02e-4,-0.7058 0.0588,-1.4174 0.1875,-2.1309 0.325082,-1.8022 1.050453,-3.4506 2.06836,-4.8672 z m 5.285156,1.6367 c 1.469866,0.2411 3.034676,0.3697 4.638672,0.3594 1.473569,-0.01 2.912145,-0.129 4.263672,-0.3496 0.0052,0.024 0.01241,0.046 0.01758,0.07 -0.149267,0.073 -0.301254,0.1384 -0.447266,0.2227 -1.951237,1.1266 -3.198614,3.0039 -3.601562,5.0586 l -5.398437,0 c -0.0012,-0.4796 -0.0057,-0.9582 0.01953,-1.4434 0.07261,-1.3942 0.249498,-2.7129 0.507812,-3.918 z m 12.048828,0.2989 c 2.30404,-0.06 4.566901,1.1095 5.802735,3.25 1.797495,3.1134 0.734475,7.0814 -2.378907,8.8789 -3.113351,1.7975 -7.081397,0.7345 -8.878906,-2.3789 -1.797496,-3.1134 -0.734476,-7.0833 2.378906,-8.8809 0.973097,-0.5618 2.02923,-0.8422 3.076172,-0.8691 z m 0.277344,1.498 c -0.241748,-0.01 -0.484634,0.01 -0.726563,0.037 -0.658981,0.082 -1.291638,0.3184 -1.876953,0.6563 -2.383311,1.376 -3.217221,4.4229 -1.839843,6.8086 1.377815,2.3865 4.452334,3.2163 6.839843,1.8379 2.386433,-1.3779 3.218267,-4.4504 1.839844,-6.8379 -0.905007,-1.5676 -2.544096,-2.4635 -4.236328,-2.502 z m -0.02344,1 c 1.352098,0.031 2.666892,0.745 3.392579,2.002 0.105336,0.1824 0.180177,0.372 0.253906,0.5625 l -7.441406,0 c 0.320394,-0.8118 0.893042,-1.5314 1.714843,-2.0059 0.490663,-0.2832 0.998974,-0.4672 1.5,-0.5293 0.193074,-0.024 0.386922,-0.034 0.580078,-0.029 z m -19.800781,3.5645 5.976563,0 c 0.06136,1.9573 0.307413,3.833 0.738281,5.4961 -1.448818,0.2885 -2.77684,0.7069 -3.933594,1.2343 -1.59164,-1.8896 -2.573403,-4.2396 -2.78125,-6.7304 z m 6.988282,0 5.249999,0 c -0.0849,1.4154 0.225864,2.8703 0.986329,4.1875 0.182422,0.3159 0.390024,0.606 0.609374,0.8847 -2.071405,-0.1382 -4.147037,-0.053 -6.080077,0.2442 -0.423865,-1.589 -0.689926,-3.4082 -0.765625,-5.3164 z m 8.759765,0 7.953125,0 c 0.167107,1.5316 -0.559309,3.0896 -1.980469,3.9101 -1.916404,1.1065 -4.365606,0.4449 -5.472656,-1.4726 -0.445489,-0.7717 -0.593412,-1.6223 -0.5,-2.4375 z m -4.169922,6.0039 c 1.098542,-0.016 2.210327,0.038 3.306641,0.1562 0.26481,0.2232 0.542069,0.4288 0.832031,0.6113 -0.725712,1.9924 -1.681154,3.3203 -2.609375,3.8809 -0.301223,0.182 -0.596296,0.2911 -0.890625,0.3379 -0.196417,0 -0.393012,0.01 -0.589844,0 -0.459739,-0.078 -0.926662,-0.3327 -1.421875,-0.795 -0.851983,-0.7952 -1.587665,-2.1869 -2.15039,-3.9082 1.131671,-0.167 2.31685,-0.2676 3.523437,-0.2851 z m -4.564453,0.4648 c 0.559272,1.7522 1.321036,3.226 2.283203,4.2246 -0.860694,-0.1958 -1.711344,-0.4789 -2.533203,-0.873 -1.239614,-0.5945 -2.336954,-1.383 -3.271484,-2.3125 1.031606,-0.436 2.221285,-0.7879 3.521484,-1.0391 z m 17.015625,0.1 3.855469,6.6797 c 0.14282,0.2474 0.06572,0.5408 -0.181641,0.6836 -0.247364,0.1428 -0.540744,0.064 -0.683594,-0.1836 l -3.847656,-6.6641 c 0.09958,-0.052 0.200702,-0.096 0.298828,-0.1523 0.194169,-0.1121 0.378386,-0.2369 0.558594,-0.3633 z m -7.427734,0.6797 c 1.048008,0.4779 2.195837,0.7161 3.353515,0.6817 -1.541101,1.3822 -3.381162,2.316 -5.333984,2.7617 0.776431,-0.809 1.436392,-1.9841 1.980469,-3.4434 z"
              color="#000" font-family="sans-serif" font-weight="400" overflow="visible"/>
    </g>
</svg>