<svg xmlns:xlink="http://www.w3.org/1999/xlink" xmlns="http://www.w3.org/2000/svg" width="28" height="28"
     viewBox="0 0 28 28">
    <defs>
        <linearGradient id="b" x1="868.253" x2="937.656" y1="521.354" y2="588.736"
                        gradientTransform="translate(-774.065 -462.595) scale(.89708)" gradientUnits="userSpaceOnUse"
                        xlink:href="#a"/>
        <linearGradient id="a">
            <stop offset="0" stop-color="#24f3d2"/>
            <stop offset=".394" stop-color="#0674f0"/>
            <stop offset=".507" stop-color="#6961b5"/>
            <stop offset=".813" stop-color="#f34660"/>
            <stop offset="1" stop-color="#ee078d"/>
        </linearGradient>
    </defs>
    <rect width="28" height="28" fill="url(#b)" rx="5.917" ry="5.917"/>
    <path fill="#fff"
          d="m 18.503293,5.0156135 c -1.950571,0 -3.599972,1.254175 -4.221517,2.993901 l -6.1205171,0 C 7.520728,8.0095145 7,8.5312415 7,9.170774 l 0,2.675774 C 7,12.097364 7.098303,12.31636 7.2342035,12.506221 7.098303,12.696083 7,12.917029 7,13.167847 l 0,2.675774 c 0,0.250816 0.098303,0.469811 0.2342035,0.659672 C 7.098303,16.693154 7,16.914102 7,17.164918 l 0,2.675775 C 7,20.481224 7.5217273,21 8.1612589,21 l 10.6699191,0 c 0.640531,0 1.159308,-0.519775 1.159308,-1.159307 l 0,-2.675775 c 0,-0.250816 -0.09635,-0.471764 -0.232252,-0.661625 0.1359,-0.189861 0.232252,-0.408856 0.232252,-0.659672 l 0,-2.107832 C 21.736207,13.118242 23,11.467888 23,9.51232 23,7.0331365 20.982477,5.0156135 18.503293,5.0156135 Z m 0,0.999268 c 1.928588,0 3.497438,1.568851 3.497438,3.4974395 0,1.928587 -1.56885,3.497438 -3.497438,3.497438 -1.928587,0 -3.497438,-1.568851 -3.497438,-3.497438 0,-1.9285885 1.568851,-3.4974395 3.497438,-3.4974395 z m -0.513295,1.416931 0,2.7421325 -0.673336,-0.628446 -0.683093,0.729934 1.514516,1.414979 c 0.09693,0.08993 0.218636,0.134667 0.341547,0.134667 0.124909,0 0.250473,-0.04564 0.347402,-0.13857 l 1.475481,-1.416931 -0.692852,-0.720176 -0.630397,0.603074 0,-2.7206635 -0.999268,0 z m -8.9914617,2.5762385 3.9970727,0 0,0.999269 -3.9970727,0 0,-0.999269 z m 0,3.997073 3.9970727,0 0,0.999268 -3.9970727,0 0,-0.999268 z m 7.9707247,0 1.014881,0 0,0.999268 -1.014881,0 0,-0.999268 z m -7.9707247,3.997072 3.9970727,0 0,0.999268 -3.9970727,0 0,-0.999268 z m 7.9707247,0 1.014881,0 0,0.999268 -1.014881,0 0,-0.999268 z"/>
</svg>