<svg xmlns:xlink="http://www.w3.org/1999/xlink" xmlns="http://www.w3.org/2000/svg" width="48" height="48"
     viewBox="0 0 48 48">
    <defs>
        <linearGradient id="b" x1="868.253" x2="937.656" y1="521.354" y2="588.736"
                        gradientTransform="translate(-1326.968 211.343) scale(1.53785)" gradientUnits="userSpaceOnUse"
                        xlink:href="#a"/>
        <linearGradient id="a">
            <stop offset="0" stop-color="#24f3d2"/>
            <stop offset=".394" stop-color="#0674f0"/>
            <stop offset=".507" stop-color="#6961b5"/>
            <stop offset=".813" stop-color="#f34660"/>
            <stop offset="1" stop-color="#ee078d"/>
        </linearGradient>
    </defs>
    <g transform="translate(0 -1004.362)">
        <rect width="48" height="48" y="1004.362" fill="url(#b)" rx="10.144" ry="10.144"/>
        <path fill="#fff"
              d="m 18.499973,1015.3672 a 0.50005,0.50005 0 0 0 -0.5,0.5 l 0,6.5 -1,0 0,-2.627 c 0,-0.7574 -0.324693,-1.3899 -0.804688,-1.7891 -0.479995,-0.3993 -1.09133,-0.5839 -1.695312,-0.5839 -0.603983,0 -1.215318,0.1846 -1.695313,0.5839 -0.479995,0.3992 -0.804687,1.0317 -0.804687,1.7891 l 0,2.627 -1.5,0 a 0.50004997,0.50004997 0 0 0 -0.4999999,0.5 l 0,15 a 0.50004997,0.50004997 0 0 0 0.4999999,0.5 l 7.5,0 0,2.4902 a 0.50005,0.50005 0 0 0 0.5,0.5 l 2.265625,0 8.736328,0 3.248047,0 4.75,0 a 0.50005,0.50005 0 0 0 0.5,-0.5 l 0,-4.7402 0,-3.2207 0,-10.0372 0,-2.791 a 0.50005,0.50005 0 0 0 -0.01172,-0.1152 0.50004997,0.50004997 0 0 0 -0.140625,-0.4199 l -4.019531,-4.0176 a 0.50004997,0.50004997 0 0 0 -0.359375,-0.1465 0.50004997,0.50004997 0 0 0 -0.107422,0.012 0.50005,0.50005 0 0 0 -0.125,-0.014 l -14.736328,0 z m 0.5,1 13.974609,0 0,3.5195 a 0.50004997,0.50004997 0 0 0 0.5,0.5 l 3.525391,0 0,2.4726 0,10.0372 0,3.2207 0,4.2402 -4.25,0 -3.248047,0 -8.736328,0 -1.765625,0 0,-1.9902 6.5,0 a 0.50004997,0.50004997 0 0 0 0.5,-0.5 l 0,-15 a 0.50004997,0.50004997 0 0 0 -0.5,-0.5 l -3.75,0 -2.75,0 0,-6 z m 14.974609,0.7089 2.3125,2.3106 -2.3125,0 0,-2.3106 z m -19.474609,1.2911 c 0.396026,0 0.784676,0.1289 1.054687,0.3535 0.270012,0.2246 0.445313,0.5292 0.445313,1.0195 l 0,5.9805 c 0,0.7044 -0.29711,0.8379 -0.5,0.8379 -0.20289,0 -0.5,-0.1335 -0.5,-0.8379 l 0,-4.8965 a 0.50004997,0.50004997 0 1 0 -1,0 l 0,1.543 -1,0 0,-2.627 c 0,-0.4903 0.175301,-0.7949 0.445312,-1.0195 0.270012,-0.2246 0.658662,-0.3535 1.054688,-0.3535 z m 6.5,1 0,1 9,0 0,-1 -9,0 z m 7,3 0,1 7,0 0,-1 -7,0 z m -17,1 3,0 0,0.9941 c -1.098081,0 -2,0.9013 -2,2 0,1.0987 0.900712,2 2,2 0.549624,0 1.052806,-0.2242 1.414062,-0.5859 0.06945,-0.07 0.128893,-0.1492 0.1875,-0.2286 0.753694,-0.062 1.398438,-0.7945 1.398438,-1.8261 l 0,-2.3535 4.75,0 3.25,0 0,14 -14,0 0,-14 z m 3,1.9941 0,0.3594 c 0,0.6119 0.230795,1.1134 0.572265,1.4394 -0.163419,0.1177 -0.352941,0.2012 -0.572265,0.2012 -0.557884,0 -1,-0.4415 -1,-1 0,-0.5585 0.440909,-1 1,-1 z m 14,0.01 0,1 7,0 0,-1 -7,0 z m -10.105469,3.6132 c -0.315472,0 -0.469626,0.1708 -0.609375,0.3106 l -4.035156,4.4726 c 0.0017,0 0.0017,-2e-4 -0.0078,0.01 -0.0088,0.01 -0.01731,0.019 -0.02539,0.029 -0.0024,0 -0.0056,0.01 -0.0078,0.01 -0.02653,0.031 -0.05813,0.069 -0.08789,0.1211 -0.06792,0.1175 -0.121098,0.2908 -0.121098,0.4843 0,0.5191 0.432032,0.9473 0.949219,0.9473 l 0.0293,0 3.378906,0 c 0.02285,3e-4 0.04569,-10e-4 0.06836,0 0.02456,0 0.04937,0.01 0.07422,0.01 1.625274,0 2.992875,0.027 5.005859,0 0.27384,0 0.494133,-0.2261 0.494141,-0.5 l 0,-3.8359 c 4.41e-4,-0.1109 -0.03597,-0.2188 -0.103516,-0.3067 l -0.595703,-0.7734 c -0.0086,-0.012 -0.01776,-0.023 -0.02734,-0.033 -0.190458,-0.208 -0.471986,-0.3391 -0.736329,-0.3242 -0.264342,0.015 -0.469898,0.143 -0.609375,0.289 -0.02282,0.025 -0.0431,0.051 -0.06055,0.08 l -0.736329,0.9004 -1.43164,-1.584 c -0.0057,-0.01 -0.01155,-0.013 -0.01758,-0.019 -0.214695,-0.2135 -0.526792,-0.3113 -0.783204,-0.2793 l -0.0019,0 -0.002,0 z m -4.677734,4.8223 c -2.46e-4,4e-4 0.01407,-0.019 0.02148,-0.027 -0.0058,0.01 -0.0089,0.01 -0.01758,0.02 -0.0014,0 -0.0023,0 -0.0039,0.01 z m 4.78125,-3.8086 1.492187,1.6504 -2.226562,2.7207 -3.208985,0 3.94336,-4.3711 z m 3.587891,0.668 0.414062,0.539 0,3.1661 c -1.297277,0.012 -2.369062,0.01 -3.445312,0 l 3.03125,-3.7051 z"
              color="#000" font-family="sans-serif" font-weight="400" overflow="visible"
              style="line-height:normal;text-indent:0;text-align:start;text-decoration-line:none;text-decoration-style:solid;text-decoration-color:#000;text-transform:none;block-progression:tb;isolation:auto;mix-blend-mode:normal"/>
    </g>
</svg>