<svg xmlns:xlink="http://www.w3.org/1999/xlink" xmlns="http://www.w3.org/2000/svg" viewBox="0 0 48 48">
    <defs>
        <linearGradient id="b" x1="949.87" x2="974.39" y1="518.014" y2="544.657"
                        gradientTransform="translate(-1454.353 211.343) scale(1.53785)" gradientUnits="userSpaceOnUse"
                        xlink:href="#a"/>
        <linearGradient id="a">
            <stop offset="0" stop-color="#ffcef3" class="stopColor24f7bc svgShape"/>
            <stop offset="1" stop-color="#a1eafb" class="stopColor24c4fc svgShape"/>
        </linearGradient>
    </defs>
    <g transform="translate(0 -1004.362)" fill="#cabbe9" class="color000 svgShape">
        <rect width="48" height="48" y="1004.362" fill="url(#b)" rx="10.144" ry="10.144"/>
        <path fill="#fdfdfd"
              d="M13.359 1016.36a.515.515 0 0 0-.344.5v3c0 .262.238.5.5.5h1.531v1.5c0 .12-.023.09-.062.125a.8.8 0 0 1-.344.156c-.384.087-1.025.11-1.687.188-.663.078-1.376.193-1.97.656-.593.463-.968 1.28-.968 2.375v.188c-.006.36-.002.073 0 .656v13.625c0 .262.238.5.5.5h17.031a.52.52 0 0 0 .5-.5v-14.469c0-1.116-.384-1.921-.968-2.406-.585-.485-1.31-.634-1.97-.719-.66-.085-1.268-.11-1.655-.187a1.192 1.192 0 0 1-.375-.125c.004-.001 0-.017 0-.062v-1.5h1.406a.52.52 0 0 0 .5-.5v-3a.52.52 0 0 0-.5-.5H13.515a.41.41 0 0 0-.156 0zm.656 1h9.969v2H14.015zm2.031 3h6.032v1.5c0 .335.136.652.375.844.238.192.508.29.78.344.546.108 1.168.08 1.75.156.584.075 1.121.242 1.47.531.348.29.593.714.593 1.625H11.015c0-.882.244-1.29.594-1.562.35-.273.874-.43 1.469-.5.594-.07 1.222-.061 1.78-.188.28-.063.546-.164.782-.375.236-.21.406-.53.406-.875zm19.563 2a2.442 2.442 0 0 0-1.406.344 2.522 2.522 0 0 0-.875 3.438 2.522 2.522 0 0 0 3.437.874 2.522 2.522 0 0 0 .875-3.437 2.545 2.545 0 0 0-2.031-1.219zm-.344 1c.58-.08 1.18.181 1.5.719a1.487 1.487 0 0 1-.125 1.719l-1.437-2.407c.022 0 .04-.028.062-.03zm-.937.563 1.468 2.406c-.617.14-1.25-.11-1.593-.688a1.48 1.48 0 0 1 .125-1.718zm-23.313 2.437h16.031v12.969H11.015zm21.469 2c-.641 0-1.264.233-1.75.719a2.54 2.54 0 0 0 0 3.563c.972.972 2.559.972 3.531 0a2.54 2.54 0 0 0 0-3.563 2.512 2.512 0 0 0-1.781-.719zm-15.094.031a.515.515 0 0 0-.375.5v1.969h-2a.52.52 0 0 0-.5.5v3.031c0 .262.238.5.5.5h2v1.969c0 .262.238.5.5.5h3.031a.52.52 0 0 0 .5-.5v-1.969h1.969a.52.52 0 0 0 .5-.5v-3.031a.52.52 0 0 0-.5-.5h-1.969v-1.969a.52.52 0 0 0-.5-.5h-3.031a.264.264 0 0 0-.125 0zm15.094.969c.22 0 .452.027.656.125l-2 2a1.48 1.48 0 0 1 1.344-2.125zm-14.469.03h2.031v1.97c0 .261.238.5.5.5h1.969v2.03h-1.969a.52.52 0 0 0-.5.5v1.97h-2.031v-1.97a.52.52 0 0 0-.5-.5h-2v-2.03h2a.52.52 0 0 0 .5-.5zm15.813.813a1.48 1.48 0 0 1-.282 1.72 1.465 1.465 0 0 1-1.687.28zm-2.282 4.688c-.64.046-1.25.374-1.593.969-.55.952-.203 2.2.75 2.75l2.593 1.5c.952.55 2.17.202 2.719-.75.55-.952.233-2.17-.719-2.72l-2.593-1.5a2.033 2.033 0 0 0-1.157-.25zm.282.969c.128.017.253.086.375.156l.843.469-1 1.75-.843-.5a1 1 0 0 1-.375-1.375c.21-.366.613-.551 1-.5zm2.093 1.156.875.5c.488.281.657.856.375 1.344a1 1 0 0 1-1.375.375l-.875-.5z"
              color="#000"
              style="line-height:normal;-inkscape-font-specification:Sans;text-indent:0;text-align:start;text-decoration-line:none;text-transform:none;block-progression:tb;marker:none"
              class="colorfff svgShape"/>
    </g>
</svg>