<svg xmlns:xlink="http://www.w3.org/1999/xlink" xmlns="http://www.w3.org/2000/svg" width="48" height="48"
     viewBox="0 0 48 48">
    <defs>
        <linearGradient id="b" x1="949.87" x2="974.39" y1="518.014" y2="544.657"
                        gradientTransform="translate(-1416.286 473.343) scale(1.53785)" gradientUnits="userSpaceOnUse"
                        xlink:href="#a"/>
        <linearGradient id="a">
            <stop offset="0" stop-color="#24f7bc"/>
            <stop offset="1" stop-color="#24c4fc"/>
        </linearGradient>
    </defs>
    <g transform="translate(-38.067 -1266.363)">
        <rect width="48" height="48" x="38.067" y="1266.362" fill="url(#b)" rx="10.144" ry="10.144"/>
        <path fill="#fff"
              style="line-height:normal;-inkscape-font-specification:Sans;text-indent:0;text-align:start;text-decoration-line:none;text-transform:none;block-progression:tb;marker:none"
              d="m 56.870212,1275.3569 c 1.073538,0.026 2.147174,0.2514 3.1875,0.6563 -1.310206,0.1782 -2.572765,0.524 -3.75,1.0312 -0.01087,0.01 -0.0213,0.02 -0.03125,0.031 -3.728123,1.6188 -6.6375,4.7568 -7.96875,8.625 -0.0043,0.013 -0.02696,0.019 -0.03125,0.031 -0.02654,0.039 -0.04765,0.081 -0.0625,0.125 -0.02353,0.071 -0.04006,0.1471 -0.0625,0.2188 -0.104314,0.3347 -0.201123,0.6864 -0.28125,1.0312 -0.06967,0.2996 -0.136887,0.6001 -0.1875,0.9063 -0.915244,-2.5857 -0.67403,-5.4836 0.71875,-7.9063 1.799735,-3.1307 5.100694,-4.8329 8.46875,-4.75 z m 10.375,0 c 3.377288,-0.083 6.700265,1.6193 8.5,4.75 1.450156,2.5225 1.614478,5.553 0.5625,8.2188 -0.04251,-0.2917 -0.06512,-0.5892 -0.125,-0.875 -0.197055,-0.9555 -0.498571,-1.8718 -0.875,-2.75 -0.01314,-0.031 -0.0179,-0.063 -0.03125,-0.094 -1.61874,-3.7054 -4.748243,-6.6054 -8.59375,-7.9375 -0.0099,-0.011 -0.02038,-0.021 -0.03125,-0.031 -0.0092,0 -0.02209,0 -0.03125,0 -0.03847,-0.027 -0.08069,-0.048 -0.125,-0.062 -0.784586,-0.2581 -1.599905,-0.442 -2.4375,-0.5625 1.041497,-0.4049 2.111006,-0.6299 3.1875,-0.6563 z m -5.4375,1.5 c 0.06278,-9e-4 0.124525,0 0.1875,0 0.463965,0 0.922712,0.047 1.375,0.094 0.163988,0.022 0.337875,0.034 0.5,0.062 0.03204,0 0.06178,0.026 0.09375,0.031 0.575081,0.105 1.133325,0.2475 1.6875,0.4063 l -1.71875,4.6562 c -0.62373,-0.1441 -1.267859,-0.25 -1.9375,-0.25 -0.463663,0 -0.907269,0.042 -1.34375,0.125 -0.441032,0.069 -0.866104,0.1789 -1.28125,0.3125 l -2.125,-4.5312 c 0.740159,-0.2811 1.519034,-0.5 2.3125,-0.6563 0.730874,-0.1347 1.484176,-0.2394 2.25,-0.25 z m 4.8125,0.8438 c 3.347844,1.2322 6.08362,3.7631 7.59375,6.9687 l -4.5,2.0938 c -0.944205,-2.037 -2.682737,-3.6059 -4.8125,-4.375 z m -10.28125,0.4375 2.09375,4.5312 c -2.034986,0.9365 -3.629347,2.6303 -4.40625,4.75 l -4.6875,-1.7187 c 1.24561,-3.3457 3.783311,-6.0649 7,-7.5625 z m 5.65625,4.7187 c 0.372329,0 0.740249,0.04 1.09375,0.094 0.03216,0 0.06173,0.026 0.09375,0.031 0.319168,0.053 0.630377,0.098 0.9375,0.1875 0.01935,0.01 0.04322,-0.01 0.0625,0 0.0099,0.011 0.02038,0.021 0.03125,0.031 2.181149,0.6586 3.91974,2.248 4.75,4.3437 -3.26e-4,0.01 -3.26e-4,0.021 0,0.031 0.06861,0.1751 0.13185,0.3496 0.1875,0.5312 0.07227,0.2359 0.138134,0.5043 0.1875,0.75 0.0063,0.032 0.02537,0.062 0.03125,0.094 0.03256,0.1734 0.04182,0.3534 0.0625,0.5312 0.03224,0.2897 0.0625,0.578 0.0625,0.875 0,0.3724 -0.04031,0.7402 -0.09375,1.0938 -0.05344,0.3535 -0.120026,0.6926 -0.21875,1.0312 -0.0013,0.021 -0.0013,0.042 0,0.062 -0.0065,0.022 -0.0246,0.041 -0.03125,0.062 -3.26e-4,0.01 -3.26e-4,0.021 0,0.031 -0.655504,2.1096 -2.204,3.8142 -4.21875,4.6562 -0.05331,0 -0.106279,0.013 -0.15625,0.031 -0.02153,0.01 -0.04243,0.019 -0.0625,0.031 -0.634981,0.2445 -1.297956,0.4045 -2,0.4688 -0.234604,0.021 -0.477883,0.031 -0.71875,0.031 -0.743839,0 -1.446865,-0.1148 -2.125,-0.3125 -0.04997,-0.019 -0.102945,-0.029 -0.15625,-0.031 -2.149503,-0.6713 -3.865826,-2.2697 -4.6875,-4.3438 -0.01215,-0.031 -0.01949,-0.063 -0.03125,-0.094 -0.06081,-0.158 -0.10616,-0.3067 -0.15625,-0.4688 -0.07227,-0.2359 -0.138134,-0.4731 -0.1875,-0.7187 -0.0083,-0.042 -0.02359,-0.083 -0.03125,-0.125 -0.02119,-0.114 -0.04651,-0.2279 -0.0625,-0.3438 -0.01552,-0.1134 -0.02073,-0.2286 -0.03125,-0.3437 -0.0214,-0.2341 -0.03125,-0.4773 -0.03125,-0.7188 0,-0.2954 0.03041,-0.5579 0.0625,-0.8437 0.02363,-0.2106 0.05351,-0.4205 0.09375,-0.625 0.01003,-0.051 0.02021,-0.1057 0.03125,-0.1563 0.03856,-0.1758 0.07558,-0.3617 0.125,-0.5312 3.25e-4,-0.011 3.25e-4,-0.021 0,-0.031 0.66167,-2.2289 2.317198,-3.993 4.46875,-4.8125 0.382628,-0.1473 0.780255,-0.2605 1.1875,-0.3437 0.491395,-0.099 1.007699,-0.1563 1.53125,-0.1563 z m 12.59375,2.75 c 0.140545,0.3701 0.263687,0.7722 0.375,1.1563 0.111313,0.384 0.203105,0.7595 0.28125,1.1562 0.07814,0.3967 0.146459,0.8107 0.1875,1.2188 0.04104,0.408 0.0625,0.8007 0.0625,1.2187 0,1.2717 -0.259133,2.4557 -0.59375,3.625 l -4.625,-1.6875 c 0.07196,-0.3136 0.08844,-0.6426 0.125,-0.9687 0.0357,-0.3186 0.09375,-0.6402 0.09375,-0.9688 0,-0.2983 -0.02559,-0.5884 -0.0625,-0.875 -0.01599,-0.1591 -0.03798,-0.3125 -0.0625,-0.4687 -0.0038,-0.02 0.0039,-0.043 0,-0.062 -0.0706,-0.4296 -0.149472,-0.8454 -0.28125,-1.25 z m -25.5,1.0938 4.625,1.6875 c -0.148586,0.6327 -0.21875,1.2885 -0.21875,1.9687 0,0.2316 0.0054,0.4657 0.03125,0.6875 0.05236,0.6634 0.180895,1.3269 0.375,1.9375 l -4.5,2.0938 c -0.281281,-0.7404 -0.500008,-1.4956 -0.65625,-2.2813 -0.07812,-0.3928 -0.146489,-0.7824 -0.1875,-1.1875 -0.02357,-0.2328 -0.02095,-0.4817 -0.03125,-0.7187 -0.007,-0.1778 -0.03125,-0.3519 -0.03125,-0.5313 0,-0.1805 0.02139,-0.3532 0.03125,-0.5312 0.0054,-0.1356 -0.0094,-0.2717 0,-0.4063 0.0051,-0.054 0.02534,-0.1024 0.03125,-0.1562 0.02807,-0.256 0.04977,-0.4986 0.09375,-0.75 0.10647,-0.6087 0.269631,-1.2273 0.4375,-1.8125 z m 27.25,5.7187 c 1.034635,2.6561 0.849308,5.6773 -0.59375,8.1875 -2.378435,4.1374 -7.403617,5.7864 -11.71875,4.0938 5.467105,-0.7815 9.963835,-4.636 11.6875,-9.75 0.02654,-0.039 0.04764,-0.081 0.0625,-0.125 0.01762,-0.054 0.04549,-0.1025 0.0625,-0.1563 0.03869,-0.1236 0.05832,-0.25 0.09375,-0.375 0.09564,-0.3328 0.17835,-0.6595 0.25,-1 0.06127,-0.2912 0.113203,-0.5779 0.15625,-0.875 z m -28.65625,0.2813 c 0.109989,0.6743 0.268229,1.3282 0.46875,1.9687 0.142907,0.4529 0.315955,0.8793 0.5,1.3125 0.01485,0.044 0.03596,0.087 0.0625,0.125 1.639493,3.7549 4.803373,6.6921 8.71875,8 0.0099,0.011 0.02038,0.021 0.03125,0.031 0.0095,0 0.02174,0 0.03125,0 0.02198,0.01 0.04047,0.024 0.0625,0.031 0.130826,0.042 0.273864,0.055 0.40625,0.094 0.271138,0.079 0.534942,0.1554 0.8125,0.2187 0.41973,0.097 0.848872,0.1912 1.28125,0.25 -4.301702,1.6678 -9.284866,2e-4 -11.65625,-4.125 -1.39278,-2.4227 -1.633994,-5.3206 -0.71875,-7.9062 z m 22.3125,0.5625 4.65625,1.7187 c -1.239205,3.3668 -3.768628,6.1203 -7,7.625 l -2.0625,-4.5312 c 2.043503,-0.9488 3.641557,-2.6717 4.40625,-4.8125 z m -15.71875,0.6562 c 0.93435,2.0451 2.654202,3.6267 4.78125,4.4063 l -1.71875,4.6875 c -3.355109,-1.2447 -6.094733,-3.7748 -7.59375,-7 z m 10.375,4.5313 2.09375,4.5 c -1.480544,0.5625 -3.078349,0.9062 -4.75,0.9062 -0.06356,0 -0.124234,0 -0.1875,0 -0.283674,0 -0.564419,-0.01 -0.84375,-0.031 -0.90039,-0.093 -1.775747,-0.319 -2.625,-0.5625 l 1.6875,-4.625 c 0.632713,0.1485 1.288532,0.2187 1.96875,0.2187 0.930391,0 1.820589,-0.1341 2.65625,-0.4062 z"
              color="#000" font-family="Sans" font-weight="400" overflow="visible"/>
    </g>
</svg>