<svg xmlns:xlink="http://www.w3.org/1999/xlink" xmlns="http://www.w3.org/2000/svg" width="64" height="64">
    <defs>
        <linearGradient id="b" x1="906.952" x2="931.379" y1="515.915" y2="546.094"
                        gradientTransform="translate(-1388.715 212.304) scale(1.53785)" gradientUnits="userSpaceOnUse"
                        xlink:href="#a"/>
        <linearGradient id="a">
            <stop offset="0" stop-color="#ffd800"/>
            <stop offset="1" stop-color="#ff6100"/>
        </linearGradient>
    </defs>
    <g transform="translate(-.004 -1005.324)">
        <rect width="48" height="48" x=".004" y="1005.324" fill="url(#b)" rx="10.144" ry="10.144"/>
        <path fill="#fff"
              d="m 17.504117,1014.3237 c -4.492077,0 -8.5000005,4.0079 -8.5000005,8.5 0,4.3259 3.7133085,8.1877 8.0000005,8.4688 l 0,12.5312 a 0.50005,0.50005 0 0 0 0.5,0.5 l 21,0 a 0.50005,0.50005 0 0 0 0.5,-0.5 l 0,-15.9687 0,-5.0313 a 0.50005,0.50005 0 0 0 -0.5,-0.5 l -12.53125,0 c -0.281006,-4.2867 -4.142904,-8 -8.46875,-8 z m -0.71875,1.0312 c 0.07288,-0.01 0.145548,0.01 0.21875,0 l 0,2.9688 -2.71875,0 c 0.235085,-0.8462 0.529552,-1.695 0.875,-2.5625 0.52629,-0.1967 1.068322,-0.3426 1.625,-0.4063 z m 1.21875,0 c 0.612849,0.049 1.207345,0.1623 1.78125,0.375 0.350546,0.8784 0.640096,1.7373 0.875,2.5938 l -2.65625,0 0,-2.9688 z m -4.15625,1.0313 c -0.228066,0.6451 -0.425915,1.2967 -0.59375,1.9375 l -1.59375,0 c 0.610298,-0.7689 1.352215,-1.43 2.1875,-1.9375 z m 7.25,0 c 0.821424,0.5068 1.558556,1.17 2.15625,1.9375 l -1.5625,0 c -0.166476,-0.6454 -0.365031,-1.2874 -0.59375,-1.9375 z m -10.125,2.9375 2.03125,0 c -0.211885,1.0018 -0.326855,1.9971 -0.375,3 l -2.59375,0 c 0.08113,-1.0585 0.402066,-2.0724 0.9375,-3 z m 3.03125,0 3,0 0,3 -3.375,0 c 0.04973,-1.004 0.14746,-1.9894 0.375,-3 z m 4,0 2.90625,0 c 0.222813,1.0057 0.386574,2.0006 0.4375,3 l -3.34375,0 0,-3 z m 3.90625,0 2.03125,0 c 0.518185,0.9201 0.85154,1.9531 0.9375,3 l -2.5625,0 c -0.04756,-0.9995 -0.199262,-2.0015 -0.40625,-3 z m -11.875,4 2.5625,0 c 0.0094,0.9951 0.09337,1.9904 0.28125,3 l -1.875,0 c -0.547276,-0.9183 -0.883162,-1.9366 -0.96875,-3 z m 3.5625,0 3.40625,0 0,3 -3.09375,0 c -0.201848,-1.0047 -0.300482,-2.0134 -0.3125,-3 z m 4.40625,0 7.5,0 12.5,0 0,3 -20,0 0,-3 z m 1.5,1 c -0.276149,0 -0.5,0.2238 -0.5,0.5 0,0.2761 0.223851,0.5 0.5,0.5 0.276148,0 0.5,-0.2239 0.5,-0.5 0,-0.2762 -0.223852,-0.5 -0.5,-0.5 z m 2,0 c -0.276142,0 -0.5,0.2238 -0.5,0.5 0,0.2761 0.223858,0.5 0.5,0.5 0.276143,0 0.5,-0.2239 0.5,-0.5 0,-0.2762 -0.223857,-0.5 -0.5,-0.5 z m 2,0 c -0.276142,0 -0.5,0.2238 -0.5,0.5 0,0.2761 0.223858,0.5 0.5,0.5 0.276143,0 0.5,-0.2239 0.5,-0.5 0,-0.2762 -0.223857,-0.5 -0.5,-0.5 z m -11.78125,3 1.375,0 c 0.134959,0.5501 0.308454,1.0988 0.5,1.6563 -0.701751,-0.4555 -1.342229,-1.0126 -1.875,-1.6563 z m 2.40625,0 2.875,0 0,2.875 c -0.699995,-0.057 -1.40914,-0.2401 -2.0625,-0.5 -0.327435,-0.8027 -0.606926,-1.596 -0.8125,-2.375 z m 3.875,0 20,0 0,0.5313 0,15.4687 -20,0 0,-12.4375 a 0.50005,0.50005 0 0 0 0,-0.062 l 0,-3.5 z"
              color="#000" font-family="Sans" font-weight="400" overflow="visible"
              style="line-height:normal;-inkscape-font-specification:Sans;text-indent:0;text-align:start;text-decoration-line:none;text-transform:none;block-progression:tb;marker:none"/>
    </g>
</svg>