<svg width="1371" height="1352" fill="none" xmlns="http://www.w3.org/2000/svg">
    <path opacity=".014"
          d="m1892.3 1135.79 158.03-284.682a22.965 22.965 0 0 0 2.04-17.384l-126.06-448.73a22.983 22.983 0 0 0-7.68-11.663l-317.4-256.704a23.003 23.003 0 0 0-23.82-3.129L1318.02 228.99a23.005 23.005 0 0 0-13.62 19.794l-21.61 407.643c-.25 4.761.98 9.482 3.53 13.511l249.12 393.932c3.24 5.13 8.38 8.76 14.28 10.12l317.31 73.05c9.99 2.3 20.29-2.29 25.27-11.25Z"
          stroke="url(#a)" stroke-opacity=".2" stroke-width="4"/>
    <path opacity=".029"
          d="m1843 1148.95 171.92-273.769a22.995 22.995 0 0 0 2.96-17.273l-101.24-450.583a23.007 23.007 0 0 0-7.08-12.081l-301.29-270.206a22.984 22.984 0 0 0-23.59-4.35L1321.17 221.84a23.004 23.004 0 0 0-14.63 19.023l-43.09 402.401c-.51 4.754.47 9.549 2.81 13.717l226.27 402.589c2.97 5.29 7.92 9.2 13.76 10.86l310.94 88.41c9.84 2.8 20.34-1.23 25.77-9.89Z"
          stroke="url(#b)" stroke-opacity=".2" stroke-width="4"/>
    <path opacity=".043"
          d="m1793.61 1160.53 185.09-262.187a22.978 22.978 0 0 0 3.89-17.115l-76.58-451.078a22.94 22.94 0 0 0-6.47-12.468l-284.62-282.733a23.007 23.007 0 0 0-23.32-5.557l-266.84 86.701a23.007 23.007 0 0 0-15.6 18.2l-64.08 396.036c-.76 4.735-.03 9.59 2.1 13.888l203.18 409.943c2.7 5.45 7.45 9.6 13.2 11.56l303.86 103.32c9.65 3.28 20.31-.18 26.19-8.51Z"
          stroke="url(#c)" stroke-opacity=".2" stroke-width="4"/>
    <path opacity=".058"
          d="m1744.22 1170.54 197.52-249.982a22.985 22.985 0 0 0 4.81-16.905l-52.15-450.239a23.087 23.087 0 0 0-5.83-12.824l-267.49-294.266a23.017 23.017 0 0 0-22.98-6.746l-269.37 72.18a23.006 23.006 0 0 0-16.53 17.328l-84.52 388.587a23.024 23.024 0 0 0 1.37 14.021L1409 1047.69c2.42 5.59 6.96 9.99 12.61 12.24l296.06 117.73c9.45 3.75 20.24.86 26.55-7.12Z"
          stroke="url(#d)" stroke-opacity=".2" stroke-width="4"/>
    <path opacity=".072"
          d="m1694.9 1179 209.2-237.202a23.015 23.015 0 0 0 5.7-16.649l-28.02-448.089a22.994 22.994 0 0 0-5.17-13.148l-249.93-304.788a23.004 23.004 0 0 0-22.57-7.914l-271.13 57.632a22.995 22.995 0 0 0-17.4 16.408l-104.36 380.095a22.94 22.94 0 0 0 .63 14.115l156.65 420.75a22.978 22.978 0 0 0 11.99 12.88l287.59 131.62c9.22 4.21 20.11 1.9 26.82-5.71Z"
          stroke="url(#e)" stroke-opacity=".2" stroke-width="4"/>
    <path opacity=".087"
          d="m1645.75 1185.93 220.07-223.897a23 23 0 0 0 6.6-16.343l-4.26-444.658a23 23 0 0 0-4.5-13.44l-232.01-314.288a22.996 22.996 0 0 0-22.1-9.056l-272.12 43.099a23.005 23.005 0 0 0-18.22 15.443l-123.53 370.601a22.95 22.95 0 0 0-.12 14.171l133.35 424.208a23.017 23.017 0 0 0 11.32 13.51l278.5 144.93a22.996 22.996 0 0 0 27.02-4.28Z"
          stroke="url(#f)" stroke-opacity=".2" stroke-width="4"/>
    <path opacity=".101"
          d="m1596.84 1191.35 230.14-210.108a23.053 23.053 0 0 0 7.47-15.99l19.06-439.98a23.014 23.014 0 0 0-3.8-13.697l-213.79-322.756a22.995 22.995 0 0 0-21.58-10.173l-272.32 28.622a22.985 22.985 0 0 0-18.99 14.437l-142.01 360.152a22.972 22.972 0 0 0-.87 14.188l110.12 426.405a22.98 22.98 0 0 0 10.64 14.08l268.79 157.67c8.69 5.1 19.7 3.95 27.14-2.85Z"
          stroke="url(#g)" stroke-opacity=".2" stroke-width="4"/>
    <path opacity=".116"
          d="m1548.26 1195.28 239.36-195.878a23.015 23.015 0 0 0 8.33-15.59l41.88-434.09c.47-4.851-.61-9.725-3.09-13.919l-195.31-330.187a23.002 23.002 0 0 0-21-11.259L1346.66 208.6a23.01 23.01 0 0 0-19.71 13.392l-159.72 348.794a23.01 23.01 0 0 0-1.63 14.166l87.03 427.338c1.22 6 4.79 11.27 9.91 14.63l258.53 169.79c8.4 5.52 19.41 4.94 27.19-1.43Z"
          stroke="url(#h)" stroke-opacity=".2" stroke-width="4"/>
    <path opacity=".13"
          d="m1500.08 1197.77 247.73-181.27c4.95-3.63 8.25-9.08 9.17-15.15l64.14-427.026c.73-4.835-.11-9.776-2.38-14.105l-176.65-336.578a22.986 22.986 0 0 0-20.36-12.311h-270.46c-8.55 0-16.39 4.741-20.36 12.311l-176.65 336.578a22.989 22.989 0 0 0-2.38 14.105l64.14 427.026c.92 6.07 4.22 11.52 9.17 15.15l247.73 181.27a22.988 22.988 0 0 0 27.16 0Z"
          stroke="url(#i)" stroke-opacity=".2" stroke-width="4"/>
    <path opacity=".145"
          d="m1452.38 1198.85 255.24-166.33c5.15-3.36 8.74-8.64 9.97-14.66l85.78-418.838c.98-4.806.41-9.801-1.65-14.255l-157.85-341.93a23.011 23.011 0 0 0-19.68-13.328l-268.41-14.067a23.002 23.002 0 0 0-20.96 11.199l-192.73 323.557a22.976 22.976 0 0 0-3.13 14.004l41.53 425.51a22.986 22.986 0 0 0 8.39 15.618l236.44 192.1c7.76 6.3 18.69 6.87 27.06 1.42Z"
          stroke="url(#j)" stroke-opacity=".2" stroke-width="4"/>
    <path opacity=".159"
          d="m1405.24 1198.55 261.85-151.11a22.97 22.97 0 0 0 10.76-14.12l106.73-409.562c1.25-4.763.93-9.799-.91-14.367l-138.98-346.248a23.015 23.015 0 0 0-18.94-14.306l-265.63-27.919a22.995 22.995 0 0 0-21.5 10.056l-207.94 309.784a23.053 23.053 0 0 0-3.88 13.865l19.25 422.806a22.982 22.982 0 0 0 7.59 16.049l224.71 202.252c7.41 6.66 18.26 7.8 26.89 2.82Z"
          stroke="url(#k)" stroke-opacity=".2" stroke-width="4"/>
    <path opacity=".174"
          d="m1358.71 1196.93 267.59-135.65c5.5-2.79 9.65-7.67 11.52-13.55l126.95-399.254a22.946 22.946 0 0 0-.17-14.444l-120.1-349.536a22.98 22.98 0 0 0-18.15-15.243l-262.14-41.519a23.004 23.004 0 0 0-21.98 8.887L1120 531.937a22.992 22.992 0 0 0-4.62 13.685l-2.64 418.946a22.992 22.992 0 0 0 6.77 16.442l212.57 211.7a22.996 22.996 0 0 0 26.63 4.22Z"
          stroke="url(#l)" stroke-opacity=".2" stroke-width="4"/>
    <path opacity=".188"
          d="m1312.87 1194.03 272.43-120.02a22.995 22.995 0 0 0 12.24-12.93l146.39-387.962a23.008 23.008 0 0 0 .59-14.481L1643.27 306.83a23 23 0 0 0-17.32-16.136l-257.97-54.833a23.01 23.01 0 0 0-22.39 7.696L1110 523.767a22.943 22.943 0 0 0-5.35 13.466L1080.58 951.2a22.997 22.997 0 0 0 5.93 16.791l200.06 220.449a22.991 22.991 0 0 0 26.3 5.59Z"
          stroke="url(#m)" stroke-opacity=".2" stroke-width="4"/>
    <path opacity=".203"
          d="m1267.78 1189.9 276.37-104.25a23.018 23.018 0 0 0 12.94-12.28l165-375.74c2-4.555 2.47-9.636 1.33-14.48l-82.49-353.073a23.002 23.002 0 0 0-16.44-16.984l-253.12-67.823a23.006 23.006 0 0 0-22.74 6.486l-247.98 264.523a23.047 23.047 0 0 0-6.08 13.209l-44.98 407.903a22.998 22.998 0 0 0 5.07 17.099l187.22 228.47a22.992 22.992 0 0 0 25.9 6.94Z"
          stroke="url(#n)" stroke-opacity=".2" stroke-width="4"/>
    <path opacity=".217"
          d="m1223.51 1184.59 279.41-88.4c5.9-1.87 10.81-6.05 13.6-11.58l182.72-362.652a22.969 22.969 0 0 0 2.1-14.441l-63.89-353.35a22.988 22.988 0 0 0-15.52-17.782l-247.63-80.46a22.998 22.998 0 0 0-23.01 5.261l-259.38 248.317a23.012 23.012 0 0 0-6.79 12.913l-65.33 400.795c-1 6.116.51 12.377 4.19 17.362l174.09 235.757a22.988 22.988 0 0 0 25.44 8.26Z"
          stroke="url(#o)" stroke-opacity=".2" stroke-width="4"/>
    <path opacity=".232"
          d="m1180.1 1178.17 281.55-72.53a23.03 23.03 0 0 0 14.23-10.85l199.54-348.742a23 23 0 0 0 2.85-14.364l-45.47-352.656a22.987 22.987 0 0 0-14.57-18.531l-241.51-92.708a23.01 23.01 0 0 0-23.23 4.023l-269.76 231.651a22.999 22.999 0 0 0-7.49 12.58l-85.064 392.685a22.998 22.998 0 0 0 3.312 17.582l160.702 242.3c5.42 8.17 15.42 12 24.91 9.56Z"
          stroke="url(#p)" stroke-opacity=".2" stroke-width="4"/>
    <path opacity=".246"
          d="m1137.61 1170.69 282.81-56.68c6.1-1.22 11.44-4.86 14.81-10.09l215.41-334.072a22.971 22.971 0 0 0 3.6-14.247l-27.3-351.013a22.986 22.986 0 0 0-13.57-19.228l-234.8-104.539a22.994 22.994 0 0 0-23.37 2.777l-279.12 214.587a22.95 22.95 0 0 0-8.18 12.209l-104.13 383.62a23 23 0 0 0 2.413 17.756l147.117 248.1a23.014 23.014 0 0 0 24.31 10.82Z"
          stroke="url(#q)" stroke-opacity=".2" stroke-width="4"/>
    <path opacity=".261"
          d="m1096.08 1162.21 283.19-40.9c6.17-.89 11.71-4.24 15.36-9.29l230.29-318.712a22.96 22.96 0 0 0 4.35-14.092l-9.42-348.444a23.019 23.019 0 0 0-12.55-19.872l-227.52-115.923a22.995 22.995 0 0 0-23.45 1.527L1068.89 493.69a22.994 22.994 0 0 0-8.84 11.801L937.569 879.136a23.006 23.006 0 0 0 1.507 17.885l133.374 253.139c4.53 8.62 14 13.44 23.63 12.05Z"
          stroke="url(#r)" stroke-opacity=".2" stroke-width="4"/>
    <path opacity=".275"
          d="m1055.57 1152.8 282.7-25.23a23.05 23.05 0 0 0 15.86-8.47l244.16-302.721a23.02 23.02 0 0 0 5.09-13.899l8.11-344.977a23 23 0 0 0-11.49-20.459L1380.31 310.21a22.99 22.99 0 0 0-23.46.275l-294.71 179.51a23.065 23.065 0 0 0-9.49 11.359l-140.076 362.81a23.002 23.002 0 0 0 .594 17.968l119.502 257.438a22.99 22.99 0 0 0 22.9 13.23Z"
          stroke="url(#s)" stroke-opacity=".2" stroke-width="4"/>
    <path opacity=".29"
          d="m1016.12 1142.52 281.35-9.74c6.24-.21 12.13-2.96 16.31-7.61l257-286.157a22.958 22.958 0 0 0 5.82-13.668l25.26-340.637a23.003 23.003 0 0 0-10.41-20.99L1380.11 326.47a23.004 23.004 0 0 0-23.41-.973l-300.92 161.621a23.045 23.045 0 0 0-10.12 10.881L888.779 849.166a23.006 23.006 0 0 0-.323 18.005l105.542 260.989a23.02 23.02 0 0 0 22.122 14.36Z"
          stroke="url(#t)" stroke-opacity=".2" stroke-width="4"/>
    <path opacity=".304"
          d="m977.75 1131.44 279.16 5.55c6.26.13 12.3-2.31 16.73-6.74l268.77-269.084a22.98 22.98 0 0 0 6.55-13.399l41.97-335.459a22.998 22.998 0 0 0-9.3-21.463l-202.52-147.137a22.987 22.987 0 0 0-23.28-2.216l-306.07 143.581a22.972 22.972 0 0 0-10.72 10.369L866.177 834.211a23.002 23.002 0 0 0-1.242 17.995l91.543 263.784a23.002 23.002 0 0 0 21.272 15.45Z"
          stroke="url(#u)" stroke-opacity=".2" stroke-width="4"/>
    <path opacity=".319"
          d="m940.505 1119.64 276.145 20.57c6.26.47 12.44-1.64 17.1-5.84l279.47-251.577a23.015 23.015 0 0 0 7.27-13.092l58.22-329.474a23.013 23.013 0 0 0-8.18-21.876l-193.24-156.484a23.002 23.002 0 0 0-23.1-3.447l-310.17 125.45a22.988 22.988 0 0 0-11.29 9.824L844.754 819.365a23 23 0 0 0-2.16 17.938l77.54 265.837a23.012 23.012 0 0 0 20.371 16.5Z"
          stroke="url(#v)" stroke-opacity=".2" stroke-width="4"/>
    <path opacity=".333"
          d="m904.412 1107.17 272.338 35.3c6.23.81 12.53-.97 17.42-4.92l289.08-233.697a22.972 22.972 0 0 0 7.96-12.748l73.96-322.715a22.975 22.975 0 0 0-7.03-22.231L1374.6 380.894a23.013 23.013 0 0 0-22.85-4.667l-313.21 107.29a22.97 22.97 0 0 0-11.85 9.249L824.495 804.694a22.998 22.998 0 0 0-3.075 17.835l63.573 267.161a23.005 23.005 0 0 0 19.419 17.48Z"
          stroke="url(#w)" stroke-opacity=".2" stroke-width="4"/>
    <path opacity=".348"
          d="m869.493 1094.12 267.747 49.68c6.2 1.14 12.59-.3 17.69-3.99l297.6-215.502a23.008 23.008 0 0 0 8.64-12.369l89.16-315.221a22.996 22.996 0 0 0-5.87-22.523L1371 400.729a23.014 23.014 0 0 0-22.53-5.868l-315.22 89.161a23.015 23.015 0 0 0-12.37 8.642l-215.5 297.597a23.004 23.004 0 0 0-3.986 17.686l49.681 267.753a23.005 23.005 0 0 0 18.418 18.42Z"
          stroke="url(#x)" stroke-opacity=".2" stroke-width="4"/>
    <path opacity=".362"
          d="m835.768 1080.54 262.412 63.68a22.99 22.99 0 0 0 17.9-3.03l305.01-197.071a23.003 23.003 0 0 0 9.31-11.953l103.78-307.029a23.01 23.01 0 0 0-4.69-22.755l-163.04-181.067a23 23 0 0 0-22.14-7.05l-316.19 71.121a22.991 22.991 0 0 0-12.86 8.007L787.386 776.13a22.996 22.996 0 0 0-4.888 17.49l35.898 267.63a22.984 22.984 0 0 0 17.372 19.29Z"
          stroke="url(#y)" stroke-opacity=".2" stroke-width="4"/>
    <path opacity=".377"
          d="m803.253 1066.53 256.347 77.25a23.052 23.052 0 0 0 18.08-2.07l311.31-178.456a23.041 23.041 0 0 0 9.95-11.503l117.8-298.178a23 23 0 0 0-3.52-22.925L1360.93 442.59a22.994 22.994 0 0 0-21.69-8.206l-316.15 53.228a22.983 22.983 0 0 0-13.32 7.344L770.486 762.361a23 23 0 0 0-5.781 17.249l22.264 266.81a23.006 23.006 0 0 0 16.284 20.11Z"
          stroke="url(#z)" stroke-opacity=".2" stroke-width="4"/>
    <path opacity=".391"
          d="m771.959 1052.14 249.591 90.36a22.992 22.992 0 0 0 18.19-1.09l316.51-159.731a23.006 23.006 0 0 0 10.58-11.019l131.18-288.71a23.004 23.004 0 0 0-2.34-23.033l-141.25-194.423a23.01 23.01 0 0 0-21.19-9.337l-315.11 35.54a22.996 22.996 0 0 0-13.75 6.655L754.651 749.013a23.002 23.002 0 0 0-6.661 16.964l8.811 265.303a22.993 22.993 0 0 0 15.158 20.86Z"
          stroke="url(#A)" stroke-opacity=".2" stroke-width="4"/>
    <path opacity=".406"
          d="m741.893 1037.45 242.173 102.98a23.025 23.025 0 0 0 18.254-.11l320.62-140.954a23.062 23.062 0 0 0 11.18-10.503l143.89-278.665a23.002 23.002 0 0 0-1.15-23.08l-129.98-200.155a23.002 23.002 0 0 0-20.62-10.435l-313.1 18.11a23.02 23.02 0 0 0-14.14 5.941L739.848 736.143a23.003 23.003 0 0 0-7.527 16.633l-4.424 263.124a22.995 22.995 0 0 0 13.996 21.55Z"
          stroke="url(#B)" stroke-opacity=".2" stroke-width="4"/>
    <path opacity=".42"
          d="m713.058 1022.53 234.125 115.07a23.004 23.004 0 0 0 18.269.88l323.628-122.19c4.95-1.87 9.1-5.39 11.76-9.96l155.92-268.086a22.99 22.99 0 0 0 .04-23.063l-118.5-205.245a22.997 22.997 0 0 0-19.99-11.5l-310.14.991a23.007 23.007 0 0 0-14.495 5.205L726.041 723.805a22.998 22.998 0 0 0-8.376 16.26l-17.411 260.295a22.99 22.99 0 0 0 12.804 22.17Z"
          stroke="url(#C)" stroke-opacity=".2" stroke-width="4"/>
    <path opacity=".435"
          d="m685.452 1007.46 225.483 126.6a23 23 0 0 0 18.229 1.86l325.566-103.5c5.06-1.61 9.41-4.92 12.31-9.38l167.25-257.019a23.001 23.001 0 0 0 1.22-22.987l-106.85-209.686a22.985 22.985 0 0 0-19.31-12.528l-306.24-15.764a23.004 23.004 0 0 0-14.819 4.448l-275.1 202.548a23.001 23.001 0 0 0-9.207 15.843l-30.116 256.833a22.994 22.994 0 0 0 11.584 22.732Z"
          stroke="url(#D)" stroke-opacity=".2" stroke-width="4"/>
    <path opacity=".449"
          d="m659.069 992.303 216.285 137.537a22.975 22.975 0 0 0 18.135 2.85l326.441-84.95c5.17-1.35 9.7-4.45 12.84-8.77l177.85-245.51a23.004 23.004 0 0 0 2.39-22.848l-95.05-213.476a22.995 22.995 0 0 0-18.57-13.516l-301.464-32.106a22.996 22.996 0 0 0-15.101 3.672L701.256 700.933a23.001 23.001 0 0 0-10.016 15.384L648.73 969.08a23 23 0 0 0 10.339 23.223Z"
          stroke="url(#E)" stroke-opacity=".2" stroke-width="4"/>
    <path opacity=".464"
          d="M633.902 977.128 840.467 1125a23.012 23.012 0 0 0 17.988 3.83l326.285-66.6c5.25-1.08 9.97-3.95 13.33-8.13l187.72-233.603a23.003 23.003 0 0 0 3.54-22.65l-83.15-216.61a22.996 22.996 0 0 0-17.79-14.461l-295.811-47.99a23.01 23.01 0 0 0-15.344 2.878l-287.041 168.83a23 23 0 0 0-10.803 14.885l-54.565 248.107a23 23 0 0 0 9.076 23.642Z"
          stroke="url(#F)" stroke-opacity=".2" stroke-width="4"/>
    <path opacity=".478"
          d="M609.935 962.006 806.3 1119.56c5 4.02 11.448 5.76 17.788 4.81l325.102-48.5a23.07 23.07 0 0 0 13.8-7.46l196.83-221.34a23.003 23.003 0 0 0 4.69-22.392l-71.19-219.091a22.987 22.987 0 0 0-16.95-15.361l-289.343-63.368a23 23 0 0 0-15.545 2.069L679.956 680.78a23 23 0 0 0-11.564 14.346L602.14 938.014a22.998 22.998 0 0 0 7.795 23.992Z"
          stroke="url(#G)" stroke-opacity=".2" stroke-width="4"/>
    <path opacity=".493"
          d="m587.152 947.002 185.725 166.588a23.033 23.033 0 0 0 17.535 5.78l322.938-30.72c5.39-.51 10.43-2.91 14.23-6.77l205.19-208.763a22.994 22.994 0 0 0 5.81-22.075l-59.2-220.919a22.982 22.982 0 0 0-16.07-16.211l-282.079-78.2a23.004 23.004 0 0 0-15.707 1.246L670.495 671.831a23 23 0 0 0-12.298 13.768l-77.548 237.133a23 23 0 0 0 6.503 24.27Z"
          stroke="url(#H)" stroke-opacity=".2" stroke-width="4"/>
    <path opacity=".507"
          d="m565.533 932.184 174.684 174.936c4.549 4.56 10.798 7 17.23 6.73l319.813-13.28a22.98 22.98 0 0 0 14.62-6.06l212.78-195.927a22.993 22.993 0 0 0 6.92-21.701l-47.21-222.099a23.005 23.005 0 0 0-15.15-17.012l-274.069-92.443a22.997 22.997 0 0 0-15.826.412L661.761 663.684a23 23 0 0 0-13.004 13.155L560.33 907.705a23 23 0 0 0 5.203 24.479Z"
          stroke="url(#I)" stroke-opacity=".2" stroke-width="4"/>
    <path opacity=".522"
          d="m545.053 917.613 163.285 182.597a23.015 23.015 0 0 0 16.873 7.67l315.749 3.73c5.48.06 10.79-1.82 14.99-5.33l219.59-182.867a22.99 22.99 0 0 0 8-21.272l-35.26-222.635a22.994 22.994 0 0 0-14.18-17.759L968.748 555.683a23 23 0 0 0-15.902-.432L653.701 656.375a22.998 22.998 0 0 0-13.678 12.506l-98.869 224.117a22.998 22.998 0 0 0 3.899 24.615Z"
          stroke="url(#J)" stroke-opacity=".2" stroke-width="4"/>
    <path opacity=".536"
          d="m525.683 903.351 151.572 189.539a22.994 22.994 0 0 0 16.465 8.59l310.8 20.29c5.49.35 10.93-1.27 15.32-4.57l225.63-169.645a22.986 22.986 0 0 0 9.05-20.787l-23.39-222.537a22.981 22.981 0 0 0-13.17-18.451L961.988 566.755a22.999 22.999 0 0 0-15.935-1.282L646.26 649.935a22.998 22.998 0 0 0-14.319 11.822L523.089 878.671a23.001 23.001 0 0 0 2.594 24.68Z"
          stroke="url(#K)" stroke-opacity=".2" stroke-width="4"/>
    <path opacity=".551"
          d="m507.394 889.457 139.585 195.763a23 23 0 0 0 16.006 9.49l304.994 36.33c5.491.65 11.034-.69 15.613-3.79l230.898-156.288a22.988 22.988 0 0 0 10.07-20.251L1212.94 728.9a23 23 0 0 0-12.14-19.087L954.834 578.518a23.003 23.003 0 0 0-15.924-2.139l-299.525 68.012a23.002 23.002 0 0 0-14.927 11.107L506.101 864.783a22.997 22.997 0 0 0 1.293 24.674Z"
          stroke="url(#L)" stroke-opacity=".2" stroke-width="4"/>
    <path opacity=".565"
          d="m490.151 875.989 127.368 201.261a22.983 22.983 0 0 0 15.499 10.36l298.369 51.82a22.98 22.98 0 0 0 15.868-3l235.395-142.842a22.997 22.997 0 0 0 11.06-19.663V753.454c0-8.038-4.19-15.493-11.06-19.663L947.255 590.945a23.006 23.006 0 0 0-15.868-2.998l-298.369 51.822a22.998 22.998 0 0 0-15.499 10.361L490.151 851.39a22.997 22.997 0 0 0 0 24.599Z"
          stroke="url(#M)" stroke-opacity=".2" stroke-width="4"/>
    <path opacity=".58"
          d="m473.917 863 114.965 206.02a23.025 23.025 0 0 0 14.944 11.21l290.968 66.72a22.998 22.998 0 0 0 16.084-2.19L1150 1015.39a22.997 22.997 0 0 0 12.03-19.023l11.45-218.529a23.002 23.002 0 0 0-9.97-20.178L939.218 604.008a23 23 0 0 0-15.768-3.858l-296.347 35.939a22.996 22.996 0 0 0-16.034 9.587L475.198 838.547A22.998 22.998 0 0 0 473.917 863Z"
          stroke="url(#N)" stroke-opacity=".2" stroke-width="4"/>
    <path opacity=".594"
          d="m458.651 850.542 102.421 210.028a22.959 22.959 0 0 0 14.342 12.03l282.835 80.99a22.976 22.976 0 0 0 16.262-1.37l242.099-115.88a23.02 23.02 0 0 0 12.95-18.34l22.7-216.003a23.023 23.023 0 0 0-8.85-20.632L930.694 617.676a23 23 0 0 0-15.622-4.717l-293.493 20.41a23 23 0 0 0-16.53 8.786l-143.85 184.147a23.001 23.001 0 0 0-2.548 24.24Z"
          stroke="url(#O)" stroke-opacity=".2" stroke-width="4"/>
    <path opacity=".609"
          d="m444.313 838.664 89.776 213.306a23.036 23.036 0 0 0 13.694 12.82l274.019 94.58a23.009 23.009 0 0 0 16.398-.53l244.33-102.45a23.019 23.019 0 0 0 13.83-17.61l33.71-212.9a22.98 22.98 0 0 0-7.7-21.023L921.656 631.918a23.006 23.006 0 0 0-15.432-5.572l-289.834 5.277a23.003 23.003 0 0 0-16.986 7.96L448.108 814.705a23 23 0 0 0-3.795 23.959Z"
          stroke="url(#P)" stroke-opacity=".2" stroke-width="4"/>
    <path opacity=".623"
          d="m430.857 827.41 77.075 215.83a23.02 23.02 0 0 0 13.003 13.58l264.563 107.48a22.995 22.995 0 0 0 16.494.31l245.828-89.09a23.007 23.007 0 0 0 14.66-16.85l44.48-209.235a23.004 23.004 0 0 0-6.54-21.349L912.077 646.702a23 23 0 0 0-15.196-6.421l-285.406-9.418a22.994 22.994 0 0 0-17.4 7.111l-158.2 165.825a23 23 0 0 0-5.018 23.611Z"
          stroke="url(#Q)" stroke-opacity=".2" stroke-width="4"/>
    <path opacity=".638"
          d="m418.235 816.824 64.361 217.626a22.98 22.98 0 0 0 12.27 14.29l254.519 119.65a22.985 22.985 0 0 0 16.548 1.17l246.607-75.87a23.002 23.002 0 0 0 15.46-16.03l54.94-205.046a22.996 22.996 0 0 0-5.37-21.609L901.935 661.994a22.998 22.998 0 0 0-14.915-7.262l-280.245-23.638a23.002 23.002 0 0 0-17.773 6.241l-164.55 156.29a23 23 0 0 0-6.217 23.199Z"
          stroke="url(#R)" stroke-opacity=".2" stroke-width="4"/>
    <path opacity=".652"
          d="m406.4 806.945 51.675 218.685a22.972 22.972 0 0 0 11.497 14.97l243.935 131.07a23.027 23.027 0 0 0 16.56 2.03l246.69-62.81a22.973 22.973 0 0 0 16.2-15.18l65.093-200.337a23 23 0 0 0-4.18-21.804l-162.663-195.81a22.996 22.996 0 0 0-14.59-8.093L602.231 632.32a23.002 23.002 0 0 0-18.102 5.354L413.784 784.22a23 23 0 0 0-7.384 22.725Z"
          stroke="url(#S)" stroke-opacity=".2" stroke-width="4"/>
    <path opacity=".667"
          d="m395.3 797.809 39.059 219.021a23.01 23.01 0 0 0 10.686 15.61l232.864 141.7a22.971 22.971 0 0 0 16.53 2.9l246.087-49.94a22.977 22.977 0 0 0 16.899-14.3l74.905-195.132a22.997 22.997 0 0 0-2.99-21.933L879.874 693.962a22.994 22.994 0 0 0-14.22-8.911l-267.87-50.509a23.002 23.002 0 0 0-18.387 4.45L403.818 775.62a22.999 22.999 0 0 0-8.518 22.189Z"
          stroke="url(#T)" stroke-opacity=".2" stroke-width="4"/>
    <path opacity=".681"
          d="m384.883 789.449 26.554 218.641a22.99 22.99 0 0 0 9.839 16.2l221.357 151.55a22.96 22.96 0 0 0 16.457 3.76l244.823-37.3a22.993 22.993 0 0 0 17.548-13.38l84.359-189.462a23.011 23.011 0 0 0-1.8-21.995L867.918 710.566a23.003 23.003 0 0 0-13.806-9.715l-260.738-63.094a22.997 22.997 0 0 0-18.626 3.531l-180.25 126.565a23 23 0 0 0-9.615 21.596Z"
          stroke="url(#U)" stroke-opacity=".2" stroke-width="4"/>
    <path opacity=".696"
          d="m375.095 781.894 14.2 217.559a22.995 22.995 0 0 0 8.958 16.757l209.467 160.58a22.992 22.992 0 0 0 16.341 4.62l242.921-24.93a22.99 22.99 0 0 0 18.145-12.43l93.417-183.345a22.998 22.998 0 0 0-.603-21.99l-122.618-211.18a22.997 22.997 0 0 0-13.348-10.501l-253.031-75.077a23 23 0 0 0-18.821 2.601l-184.355 116.39a22.999 22.999 0 0 0-10.673 20.946Z"
          stroke="url(#V)" stroke-opacity=".2" stroke-width="4"/>
    <path opacity=".71"
          d="m365.882 775.17 2.035 215.792a23 23 0 0 0 8.046 17.258L573.21 1177a22.983 22.983 0 0 0 16.182 5.49l240.404-12.85a23.008 23.008 0 0 0 18.691-11.47L950.56 981.375a23.001 23.001 0 0 0 .586-21.92L842.077 744.831a22.994 22.994 0 0 0-12.846-11.268l-244.794-86.431a23.002 23.002 0 0 0-18.969 1.662L377.569 754.927a23 23 0 0 0-11.687 20.243Z"
          stroke="url(#W)" stroke-opacity=".2" stroke-width="4"/>
    <path opacity=".725"
          d="m357.187 769.299-9.902 213.355a23.01 23.01 0 0 0 7.104 17.716l184.752 176.15a23.007 23.007 0 0 0 15.979 6.35l237.299-1.11a22.982 22.982 0 0 0 19.182-10.47l110.305-169.86a22.991 22.991 0 0 0 1.765-21.779l-95.503-217.235a22.997 22.997 0 0 0-12.303-12.014L579.796 653.27a23.003 23.003 0 0 0-19.071.715L369.843 749.81a23 23 0 0 0-12.656 19.489Z"
          stroke="url(#X)" stroke-opacity=".2" stroke-width="4"/>
    <path opacity=".739"
          d="m348.954 764.3-21.576 210.269a23 23 0 0 0 6.135 18.116l172.036 182.685a23.027 23.027 0 0 0 15.733 7.21l233.632 10.27c7.712.34 15.08-3.21 19.618-9.45l118.093-162.55a22.993 22.993 0 0 0 2.934-21.577l-81.971-219.021a22.998 22.998 0 0 0-11.719-12.735L574.966 660.354a22.998 22.998 0 0 0-19.126-.237l-193.309 85.496a23.001 23.001 0 0 0-13.577 18.687Z"
          stroke="url(#Y)" stroke-opacity=".2" stroke-width="4"/>
    <path opacity=".754"
          d="m341.126 760.188-32.952 206.553a22.997 22.997 0 0 0 5.144 18.467l159.148 188.372c3.893 4.6 9.439 7.5 15.445 8.06l229.432 21.28c7.655.71 15.16-2.45 19.999-8.43l125.423-154.88a23.01 23.01 0 0 0 4.085-21.32l-68.522-219.988a22.998 22.998 0 0 0-11.093-13.432L569.893 668.364a23 23 0 0 0-19.133-1.192l-195.188 75.177a23 23 0 0 0-14.446 17.839Z"
          stroke="url(#Z)" stroke-opacity=".2" stroke-width="4"/>
    <path opacity=".768"
          d="m333.646 756.975-43.997 202.231a23 23 0 0 0 4.131 18.765l146.147 193.209a22.97 22.97 0 0 0 15.112 8.9l224.728 31.89a23.016 23.016 0 0 0 20.324-7.38l132.28-146.92a22.99 22.99 0 0 0 5.217-20.98l-55.203-220.164a23 23 0 0 0-10.427-14.1L564.526 677.277a22.997 22.997 0 0 0-19.093-2.147l-196.525 64.894a23 23 0 0 0-15.262 16.951Z"
          stroke="url(#aa)" stroke-opacity=".2" stroke-width="4"/>
    <path opacity=".783"
          d="m326.456 754.669-54.678 197.328a23.001 23.001 0 0 0 3.1 19.007l133.081 197.216a23.015 23.015 0 0 0 14.738 9.73l219.552 42.06c7.488 1.43 15.2-.94 20.591-6.33l138.652-138.65a22.994 22.994 0 0 0 6.325-20.59l-42.061-219.553a22.997 22.997 0 0 0-9.724-14.738L558.814 687.068a22.997 22.997 0 0 0-19.007-3.1l-197.328 54.678a22.999 22.999 0 0 0-16.023 16.023Z"
          stroke="url(#ab)" stroke-opacity=".2" stroke-width="4"/>
    <path opacity=".797"
          d="m319.499 753.274-64.965 191.87a23 23 0 0 0 2.053 19.193l120.005 200.393a23.002 23.002 0 0 0 14.321 10.54l213.934 51.78a22.984 22.984 0 0 0 20.801-5.26l144.527-130.13a23.012 23.012 0 0 0 7.408-20.14l-29.142-218.174a23.004 23.004 0 0 0-8.983-15.344l-186.75-140.294a23.004 23.004 0 0 0-18.873-4.048l-197.61 44.553a23 23 0 0 0-16.726 15.061Z"
          stroke="url(#ac)" stroke-opacity=".2" stroke-width="4"/>
    <path opacity=".812"
          d="m312.718 752.792-74.83 185.885a22.998 22.998 0 0 0 .994 19.322L345.85 1160.74c2.9 5.5 7.9 9.59 13.862 11.34l207.907 61.04a22.98 22.98 0 0 0 20.954-4.19l149.897-121.38a23.01 23.01 0 0 0 8.458-19.63L730.44 871.867a23 23 0 0 0-8.206-15.916L546.163 709.167a23.002 23.002 0 0 0-18.693-4.989l-197.381 34.547a23 23 0 0 0-17.371 14.067Z"
          stroke="url(#ad)" stroke-opacity=".2" stroke-width="4"/>
    <path opacity=".826"
          d="M306.057 753.22 221.81 932.622a23.002 23.002 0 0 0-.075 19.392l94.021 204.286a22.989 22.989 0 0 0 13.363 12.11l201.503 69.83a22.977 22.977 0 0 0 21.05-3.12l154.752-112.44a22.99 22.99 0 0 0 9.477-19.05l-4.143-213.219a23 23 0 0 0-7.394-16.452L539.132 721.412a23.003 23.003 0 0 0-18.466-5.922l-196.655 24.686a22.998 22.998 0 0 0-17.954 13.044Z"
          stroke="url(#ae)" stroke-opacity=".2" stroke-width="4"/>
    <path opacity=".841"
          d="m299.46 754.553-93.191 172.451a22.998 22.998 0 0 0-1.149 19.405l81.212 205.031a23.005 23.005 0 0 0 12.822 12.88l194.756 78.11a23.004 23.004 0 0 0 21.089-2.05l159.089-103.32a22.992 22.992 0 0 0 10.457-18.43l7.854-209.688a22.999 22.999 0 0 0-6.548-16.951L531.575 734.406a22.997 22.997 0 0 0-18.194-6.843l-195.446 14.992a23 23 0 0 0-18.475 11.998Z"
          stroke="url(#af)" stroke-opacity=".2" stroke-width="4"/>
    <path opacity=".855"
          d="M292.872 756.782 191.233 921.847a22.998 22.998 0 0 0-2.226 19.356l68.589 205.007a23.001 23.001 0 0 0 12.241 13.62l187.7 85.89a23.004 23.004 0 0 0 21.071-.99l162.902-94.06a22.982 22.982 0 0 0 11.398-17.75l19.465-205.496a23.003 23.003 0 0 0-5.672-17.409L523.453 748.111a23 23 0 0 0-17.877-7.75l-193.77 5.489a23.004 23.004 0 0 0-18.934 10.932Z"
          stroke="url(#ag)" stroke-opacity=".2" stroke-width="4"/>
    <path opacity=".87"
          d="M286.241 759.894 176.67 917.17a22.997 22.997 0 0 0-3.304 19.249l56.196 204.231a22.98 22.98 0 0 0 11.622 14.33l180.369 93.16a23.005 23.005 0 0 0 20.996.06l166.19-84.68a23 23 0 0 0 12.295-17.02l30.653-200.678a23.003 23.003 0 0 0-4.766-17.827L514.727 762.487a23 23 0 0 0-17.516-8.641l-191.643-3.8a23 23 0 0 0-19.327 9.848Z"
          stroke="url(#ah)" stroke-opacity=".2" stroke-width="4"/>
    <path opacity=".884"
          d="M279.513 763.875 162.544 912.993a23.005 23.005 0 0 0-4.378 19.082l44.08 202.725a23.025 23.025 0 0 0 10.963 15.03l172.797 99.89a22.98 22.98 0 0 0 20.866 1.1l168.951-75.22a22.979 22.979 0 0 0 13.145-16.24l41.385-195.259a23.005 23.005 0 0 0-3.83-18.201l-121.16-168.407a23.001 23.001 0 0 0-17.11-9.515L299.17 755.123a22.995 22.995 0 0 0-19.657 8.752Z"
          stroke="url(#ai)" stroke-opacity=".2" stroke-width="4"/>
    <path opacity=".899"
          d="M272.637 768.705 148.823 909.331a23.002 23.002 0 0 0-5.445 18.854l32.279 200.515a22.974 22.974 0 0 0 10.268 15.69l165.017 106.12a22.991 22.991 0 0 0 20.682 2.12l171.184-65.71a22.984 22.984 0 0 0 13.947-15.42l51.629-189.272a23.003 23.003 0 0 0-2.869-18.531L495.33 793.084a23 23 0 0 0-16.662-10.368l-186.109-21.658a23.003 23.003 0 0 0-19.922 7.647Z"
          stroke="url(#aj)" stroke-opacity=".2" stroke-width="4"/>
    <path opacity=".913"
          d="M265.566 774.365 135.471 906.199a23.003 23.003 0 0 0-6.502 18.567l20.836 197.644a22.993 22.993 0 0 0 9.536 16.32l157.062 111.8a23.012 23.012 0 0 0 20.445 3.13l172.895-56.17a22.994 22.994 0 0 0 14.696-14.56l61.355-182.76a22.995 22.995 0 0 0-1.882-18.814l-99.313-172.141a22.999 22.999 0 0 0-16.173-11.199l-182.74-30.189a23.003 23.003 0 0 0-20.12 6.538Z"
          stroke="url(#ak)" stroke-opacity=".2" stroke-width="4"/>
    <path opacity=".928"
          d="m258.252 780.829-135.799 122.78a23.003 23.003 0 0 0-7.546 18.219l9.788 194.122a22.989 22.989 0 0 0 8.768 16.93l148.969 116.95a22.98 22.98 0 0 0 20.155 4.12l174.084-46.64a23.015 23.015 0 0 0 15.393-13.65l70.537-175.77a22.987 22.987 0 0 0-.873-19.044l-88.584-173.007a22.999 22.999 0 0 0-15.644-12.005l-178.995-38.432a23 23 0 0 0-20.253 5.427Z"
          stroke="url(#al)" stroke-opacity=".2" stroke-width="4"/>
    <path opacity=".942"
          d="M250.648 788.072 109.733 901.571a23 23 0 0 0-8.572 17.812l-.831 189.997a22.98 22.98 0 0 0 7.967 17.5l140.768 121.57a22.993 22.993 0 0 0 19.814 5.09l174.76-37.14a23.014 23.014 0 0 0 16.031-12.71l79.152-168.32a22.992 22.992 0 0 0 .157-19.23l-78.037-173.231a22.997 22.997 0 0 0-15.076-12.785L270.97 783.753a23.002 23.002 0 0 0-20.322 4.319Z"
          stroke="url(#am)" stroke-opacity=".2" stroke-width="4"/>
    <path opacity=".957"
          d="M242.713 796.065 97.277 900.091a23.002 23.002 0 0 0-9.58 17.346L76.713 1102.73a22.994 22.994 0 0 0 7.132 18.05l132.492 125.66a22.992 22.992 0 0 0 19.426 6.03l174.926-27.7a23.013 23.013 0 0 0 16.612-11.74l87.176-160.45a23.007 23.007 0 0 0 1.205-19.37l-67.707-172.835a23.002 23.002 0 0 0-14.471-13.537l-170.464-53.992a23.001 23.001 0 0 0-20.326 3.219Z"
          stroke="url(#an)" stroke-opacity=".2" stroke-width="4"/>
    <path opacity=".971"
          d="m234.406 804.776-149.359 94.4a22.999 22.999 0 0 0-10.562 16.822L53.838 1096.06a22.985 22.985 0 0 0 6.265 18.55l124.175 129.24a23.006 23.006 0 0 0 18.989 6.94l174.594-18.35a23 23 0 0 0 17.131-10.74l94.591-152.23a22.99 22.99 0 0 0 2.271-19.45l-57.633-171.832a22.995 22.995 0 0 0-13.829-14.258l-165.721-61.284a22.997 22.997 0 0 0-20.265 2.13Z"
          stroke="url(#ao)" stroke-opacity=".2" stroke-width="4"/>
    <path opacity=".986"
          d="M225.687 814.171 73.01 898.827a23.001 23.001 0 0 0-11.518 16.242L31.706 1089.4a23.006 23.006 0 0 0 5.368 19.03l115.844 132.29a23.005 23.005 0 0 0 18.507 7.81l173.772-9.1a23.008 23.008 0 0 0 17.589-9.71l101.382-143.68a22.995 22.995 0 0 0 3.349-19.48l-47.845-170.263a23.005 23.005 0 0 0-13.153-14.948L245.83 813.115a23.001 23.001 0 0 0-20.143 1.056Z"
          stroke="url(#ap)" stroke-opacity=".2" stroke-width="4"/>
    <path
        d="M216.521 824.215 61.13 899.048a23 23 0 0 0-12.444 15.604L10.308 1082.8a23.013 23.013 0 0 0 4.44 19.46l107.535 134.84a23.006 23.006 0 0 0 17.982 8.66h172.47c7 0 13.618-3.19 17.982-8.66l107.534-134.84a23.011 23.011 0 0 0 4.441-19.46l-38.378-168.148a23.002 23.002 0 0 0-12.444-15.604l-155.391-74.833a22.998 22.998 0 0 0-19.958 0Z"
        stroke="url(#aq)" stroke-opacity=".2" stroke-width="4"/>
    <defs>
        <linearGradient id="a" x1="1884.92" y1="1153.21" x2="1406.8" y2="79.352" gradientUnits="userSpaceOnUse">
            <stop stop-color="#FF1CF7"/>
            <stop offset="1" stop-color="#00F0FF" stop-opacity=".2"/>
        </linearGradient>
        <linearGradient id="b" x1="1834.72" y1="1165.9" x2="1417.18" y2="78.169" gradientUnits="userSpaceOnUse">
            <stop stop-color="#FF1CF7"/>
            <stop offset="1" stop-color="#00F0FF" stop-opacity=".2"/>
        </linearGradient>
        <linearGradient id="c" x1="1784.47" y1="1176.95" x2="1427.63" y2="78.732" gradientUnits="userSpaceOnUse">
            <stop stop-color="#FF1CF7"/>
            <stop offset="1" stop-color="#00F0FF" stop-opacity=".2"/>
        </linearGradient>
        <linearGradient id="d" x1="1734.24" y1="1186.4" x2="1438.06" y2="81.028" gradientUnits="userSpaceOnUse">
            <stop stop-color="#FF1CF7"/>
            <stop offset="1" stop-color="#00F0FF" stop-opacity=".2"/>
        </linearGradient>
        <linearGradient id="e" x1="1684.12" y1="1194.25" x2="1448.35" y2="85.04" gradientUnits="userSpaceOnUse">
            <stop stop-color="#FF1CF7"/>
            <stop offset="1" stop-color="#00F0FF" stop-opacity=".2"/>
        </linearGradient>
        <linearGradient id="f" x1="1634.21" y1="1200.52" x2="1458.44" y2="90.744" gradientUnits="userSpaceOnUse">
            <stop stop-color="#FF1CF7"/>
            <stop offset="1" stop-color="#00F0FF" stop-opacity=".2"/>
        </linearGradient>
        <linearGradient id="g" x1="1584.58" y1="1205.25" x2="1468.21" y2="98.112" gradientUnits="userSpaceOnUse">
            <stop stop-color="#FF1CF7"/>
            <stop offset="1" stop-color="#00F0FF" stop-opacity=".2"/>
        </linearGradient>
        <linearGradient id="h" x1="1535.32" y1="1208.46" x2="1477.6" y2="107.11" gradientUnits="userSpaceOnUse">
            <stop stop-color="#FF1CF7"/>
            <stop offset="1" stop-color="#00F0FF" stop-opacity=".2"/>
        </linearGradient>
        <linearGradient id="i" x1="1486.5" y1="1210.19" x2="1486.5" y2="117.702" gradientUnits="userSpaceOnUse">
            <stop stop-color="#FF1CF7"/>
            <stop offset="1" stop-color="#00F0FF" stop-opacity=".2"/>
        </linearGradient>
        <linearGradient id="j" x1="1438.21" y1="1210.48" x2="1494.84" y2="129.846" gradientUnits="userSpaceOnUse">
            <stop stop-color="#FF1CF7"/>
            <stop offset="1" stop-color="#00F0FF" stop-opacity=".2"/>
        </linearGradient>
        <linearGradient id="k" x1="1390.51" y1="1209.36" x2="1502.54" y2="143.494" gradientUnits="userSpaceOnUse">
            <stop stop-color="#FF1CF7"/>
            <stop offset="1" stop-color="#00F0FF" stop-opacity=".2"/>
        </linearGradient>
        <linearGradient id="l" x1="1343.48" y1="1206.89" x2="1509.52" y2="158.597" gradientUnits="userSpaceOnUse">
            <stop stop-color="#FF1CF7"/>
            <stop offset="1" stop-color="#00F0FF" stop-opacity=".2"/>
        </linearGradient>
        <linearGradient id="m" x1="1297.19" y1="1203.12" x2="1515.71" y2="175.101" gradientUnits="userSpaceOnUse">
            <stop stop-color="#FF1CF7"/>
            <stop offset="1" stop-color="#00F0FF" stop-opacity=".2"/>
        </linearGradient>
        <linearGradient id="n" x1="1251.7" y1="1198.1" x2="1521.03" y2="192.947" gradientUnits="userSpaceOnUse">
            <stop stop-color="#FF1CF7"/>
            <stop offset="1" stop-color="#00F0FF" stop-opacity=".2"/>
        </linearGradient>
        <linearGradient id="o" x1="1207.07" y1="1191.89" x2="1525.43" y2="212.075" gradientUnits="userSpaceOnUse">
            <stop stop-color="#FF1CF7"/>
            <stop offset="1" stop-color="#00F0FF" stop-opacity=".2"/>
        </linearGradient>
        <linearGradient id="p" x1="1163.36" y1="1184.54" x2="1528.85" y2="232.421" gradientUnits="userSpaceOnUse">
            <stop stop-color="#FF1CF7"/>
            <stop offset="1" stop-color="#00F0FF" stop-opacity=".2"/>
        </linearGradient>
        <linearGradient id="q" x1="1120.62" y1="1176.13" x2="1531.22" y2="253.917" gradientUnits="userSpaceOnUse">
            <stop stop-color="#FF1CF7"/>
            <stop offset="1" stop-color="#00F0FF" stop-opacity=".2"/>
        </linearGradient>
        <linearGradient id="r" x1="1078.9" y1="1166.71" x2="1532.49" y2="276.494" gradientUnits="userSpaceOnUse">
            <stop stop-color="#FF1CF7"/>
            <stop offset="1" stop-color="#00F0FF" stop-opacity=".2"/>
        </linearGradient>
        <linearGradient id="s" x1="1038.25" y1="1156.35" x2="1532.62" y2="300.079" gradientUnits="userSpaceOnUse">
            <stop stop-color="#FF1CF7"/>
            <stop offset="1" stop-color="#00F0FF" stop-opacity=".2"/>
        </linearGradient>
        <linearGradient id="t" x1="998.703" y1="1145.12" x2="1531.56" y2="324.599" gradientUnits="userSpaceOnUse">
            <stop stop-color="#FF1CF7"/>
            <stop offset="1" stop-color="#00F0FF" stop-opacity=".2"/>
        </linearGradient>
        <linearGradient id="u" x1="960.298" y1="1133.1" x2="1529.27" y2="349.978" gradientUnits="userSpaceOnUse">
            <stop stop-color="#FF1CF7"/>
            <stop offset="1" stop-color="#00F0FF" stop-opacity=".2"/>
        </linearGradient>
        <linearGradient id="v" x1="923.069" y1="1120.34" x2="1525.71" y2="376.138" gradientUnits="userSpaceOnUse">
            <stop stop-color="#FF1CF7"/>
            <stop offset="1" stop-color="#00F0FF" stop-opacity=".2"/>
        </linearGradient>
        <linearGradient id="w" x1="887.042" y1="1106.94" x2="1520.87" y2="403.001" gradientUnits="userSpaceOnUse">
            <stop stop-color="#FF1CF7"/>
            <stop offset="1" stop-color="#00F0FF" stop-opacity=".2"/>
        </linearGradient>
        <linearGradient id="x" x1="852.241" y1="1092.95" x2="1514.7" y2="430.487" gradientUnits="userSpaceOnUse">
            <stop stop-color="#FF1CF7"/>
            <stop offset="1" stop-color="#00F0FF" stop-opacity=".2"/>
        </linearGradient>
        <linearGradient id="y" x1="818.686" y1="1078.46" x2="1507.2" y2="458.515" gradientUnits="userSpaceOnUse">
            <stop stop-color="#FF1CF7"/>
            <stop offset="1" stop-color="#00F0FF" stop-opacity=".2"/>
        </linearGradient>
        <linearGradient id="z" x1="786.39" y1="1063.53" x2="1498.34" y2="487.006" gradientUnits="userSpaceOnUse">
            <stop stop-color="#FF1CF7"/>
            <stop offset="1" stop-color="#00F0FF" stop-opacity=".2"/>
        </linearGradient>
        <linearGradient id="A" x1="755.364" y1="1048.26" x2="1488.12" y2="515.879" gradientUnits="userSpaceOnUse">
            <stop stop-color="#FF1CF7"/>
            <stop offset="1" stop-color="#00F0FF" stop-opacity=".2"/>
        </linearGradient>
        <linearGradient id="B" x1="725.614" y1="1032.7" x2="1476.53" y2="545.052" gradientUnits="userSpaceOnUse">
            <stop stop-color="#FF1CF7"/>
            <stop offset="1" stop-color="#00F0FF" stop-opacity=".2"/>
        </linearGradient>
        <linearGradient id="C" x1="697.14" y1="1016.94" x2="1463.56" y2="574.446" gradientUnits="userSpaceOnUse">
            <stop stop-color="#FF1CF7"/>
            <stop offset="1" stop-color="#00F0FF" stop-opacity=".2"/>
        </linearGradient>
        <linearGradient id="D" x1="669.941" y1="1001.05" x2="1449.23" y2="603.981" gradientUnits="userSpaceOnUse">
            <stop stop-color="#FF1CF7"/>
            <stop offset="1" stop-color="#00F0FF" stop-opacity=".2"/>
        </linearGradient>
        <linearGradient id="E" x1="644.008" y1="985.096" x2="1433.53" y2="633.579" gradientUnits="userSpaceOnUse">
            <stop stop-color="#FF1CF7"/>
            <stop offset="1" stop-color="#00F0FF" stop-opacity=".2"/>
        </linearGradient>
        <linearGradient id="F" x1="619.332" y1="969.158" x2="1416.48" y2="663.161" gradientUnits="userSpaceOnUse">
            <stop stop-color="#FF1CF7"/>
            <stop offset="1" stop-color="#00F0FF" stop-opacity=".2"/>
        </linearGradient>
        <linearGradient id="G" x1="595.896" y1="953.305" x2="1398.1" y2="692.653" gradientUnits="userSpaceOnUse">
            <stop stop-color="#FF1CF7"/>
            <stop offset="1" stop-color="#00F0FF" stop-opacity=".2"/>
        </linearGradient>
        <linearGradient id="H" x1="573.681" y1="937.606" x2="1378.41" y2="721.98" gradientUnits="userSpaceOnUse">
            <stop stop-color="#FF1CF7"/>
            <stop offset="1" stop-color="#00F0FF" stop-opacity=".2"/>
        </linearGradient>
        <linearGradient id="I" x1="552.664" y1="922.127" x2="1357.42" y2="751.07" gradientUnits="userSpaceOnUse">
            <stop stop-color="#FF1CF7"/>
            <stop offset="1" stop-color="#00F0FF" stop-opacity=".2"/>
        </linearGradient>
        <linearGradient id="J" x1="532.82" y1="906.934" x2="1335.18" y2="779.852" gradientUnits="userSpaceOnUse">
            <stop stop-color="#FF1CF7"/>
            <stop offset="1" stop-color="#00F0FF" stop-opacity=".2"/>
        </linearGradient>
        <linearGradient id="K" x1="514.117" y1="892.09" x2="1311.71" y2="808.26" gradientUnits="userSpaceOnUse">
            <stop stop-color="#FF1CF7"/>
            <stop offset="1" stop-color="#00F0FF" stop-opacity=".2"/>
        </linearGradient>
        <linearGradient id="L" x1="496.523" y1="877.656" x2="1287.05" y2="836.226" gradientUnits="userSpaceOnUse">
            <stop stop-color="#FF1CF7"/>
            <stop offset="1" stop-color="#00F0FF" stop-opacity=".2"/>
        </linearGradient>
        <linearGradient id="M" x1="480" y1="863.69" x2="1261.24" y2="863.69" gradientUnits="userSpaceOnUse">
            <stop stop-color="#FF1CF7"/>
            <stop offset="1" stop-color="#00F0FF" stop-opacity=".2"/>
        </linearGradient>
        <linearGradient id="N" x1="464.509" y1="850.247" x2="1234.32" y2="890.591" gradientUnits="userSpaceOnUse">
            <stop stop-color="#FF1CF7"/>
            <stop offset="1" stop-color="#00F0FF" stop-opacity=".2"/>
        </linearGradient>
        <linearGradient id="O" x1="450.008" y1="837.38" x2="1206.33" y2="916.873" gradientUnits="userSpaceOnUse">
            <stop stop-color="#FF1CF7"/>
            <stop offset="1" stop-color="#00F0FF" stop-opacity=".2"/>
        </linearGradient>
        <linearGradient id="P" x1="436.451" y1="825.139" x2="1177.33" y2="942.482" gradientUnits="userSpaceOnUse">
            <stop stop-color="#FF1CF7"/>
            <stop offset="1" stop-color="#00F0FF" stop-opacity=".2"/>
        </linearGradient>
        <linearGradient id="Q" x1="423.79" y1="813.569" x2="1147.36" y2="967.369" gradientUnits="userSpaceOnUse">
            <stop stop-color="#FF1CF7"/>
            <stop offset="1" stop-color="#00F0FF" stop-opacity=".2"/>
        </linearGradient>
        <linearGradient id="R" x1="411.977" y1="802.715" x2="1116.49" y2="991.488" gradientUnits="userSpaceOnUse">
            <stop stop-color="#FF1CF7"/>
            <stop offset="1" stop-color="#00F0FF" stop-opacity=".2"/>
        </linearGradient>
        <linearGradient id="S" x1="400.959" y1="792.615" x2="1084.76" y2="1014.79" gradientUnits="userSpaceOnUse">
            <stop stop-color="#FF1CF7"/>
            <stop offset="1" stop-color="#00F0FF" stop-opacity=".2"/>
        </linearGradient>
        <linearGradient id="T" x1="390.682" y1="783.307" x2="1052.23" y2="1037.25" gradientUnits="userSpaceOnUse">
            <stop stop-color="#FF1CF7"/>
            <stop offset="1" stop-color="#00F0FF" stop-opacity=".2"/>
        </linearGradient>
        <linearGradient id="U" x1="381.092" y1="774.823" x2="1018.96" y2="1058.82" gradientUnits="userSpaceOnUse">
            <stop stop-color="#FF1CF7"/>
            <stop offset="1" stop-color="#00F0FF" stop-opacity=".2"/>
        </linearGradient>
        <linearGradient id="V" x1="372.131" y1="767.192" x2="985.021" y2="1079.47" gradientUnits="userSpaceOnUse">
            <stop stop-color="#FF1CF7"/>
            <stop offset="1" stop-color="#00F0FF" stop-opacity=".2"/>
        </linearGradient>
        <linearGradient id="W" x1="363.743" y1="760.44" x2="950.464" y2="1099.18" gradientUnits="userSpaceOnUse">
            <stop stop-color="#FF1CF7"/>
            <stop offset="1" stop-color="#00F0FF" stop-opacity=".2"/>
        </linearGradient>
        <linearGradient id="X" x1="355.867" y1="754.588" x2="915.355" y2="1117.92" gradientUnits="userSpaceOnUse">
            <stop stop-color="#FF1CF7"/>
            <stop offset="1" stop-color="#00F0FF" stop-opacity=".2"/>
        </linearGradient>
        <linearGradient id="Y" x1="348.446" y1="749.656" x2="879.758" y2="1135.68" gradientUnits="userSpaceOnUse">
            <stop stop-color="#FF1CF7"/>
            <stop offset="1" stop-color="#00F0FF" stop-opacity=".2"/>
        </linearGradient>
        <linearGradient id="Z" x1="341.419" y1="745.656" x2="843.737" y2="1152.43" gradientUnits="userSpaceOnUse">
            <stop stop-color="#FF1CF7"/>
            <stop offset="1" stop-color="#00F0FF" stop-opacity=".2"/>
        </linearGradient>
        <linearGradient id="aa" x1="334.726" y1="742.601" x2="807.357" y2="1168.16" gradientUnits="userSpaceOnUse">
            <stop stop-color="#FF1CF7"/>
            <stop offset="1" stop-color="#00F0FF" stop-opacity=".2"/>
        </linearGradient>
        <linearGradient id="ab" x1="328.307" y1="740.497" x2="770.682" y2="1182.87" gradientUnits="userSpaceOnUse">
            <stop stop-color="#FF1CF7"/>
            <stop offset="1" stop-color="#00F0FF" stop-opacity=".2"/>
        </linearGradient>
        <linearGradient id="ac" x1="322.103" y1="739.347" x2="733.777" y2="1196.56" gradientUnits="userSpaceOnUse">
            <stop stop-color="#FF1CF7"/>
            <stop offset="1" stop-color="#00F0FF" stop-opacity=".2"/>
        </linearGradient>
        <linearGradient id="ad" x1="316.053" y1="739.152" x2="696.705" y2="1209.22" gradientUnits="userSpaceOnUse">
            <stop stop-color="#FF1CF7"/>
            <stop offset="1" stop-color="#00F0FF" stop-opacity=".2"/>
        </linearGradient>
        <linearGradient id="ae" x1="310.1" y1="739.906" x2="659.531" y2="1220.86" gradientUnits="userSpaceOnUse">
            <stop stop-color="#FF1CF7"/>
            <stop offset="1" stop-color="#00F0FF" stop-opacity=".2"/>
        </linearGradient>
        <linearGradient id="af" x1="304.184" y1="741.604" x2="622.315" y2="1231.48" gradientUnits="userSpaceOnUse">
            <stop stop-color="#FF1CF7"/>
            <stop offset="1" stop-color="#00F0FF" stop-opacity=".2"/>
        </linearGradient>
        <linearGradient id="ag" x1="298.25" y1="744.234" x2="585.119" y2="1241.1" gradientUnits="userSpaceOnUse">
            <stop stop-color="#FF1CF7"/>
            <stop offset="1" stop-color="#00F0FF" stop-opacity=".2"/>
        </linearGradient>
        <linearGradient id="ah" x1="292.242" y1="747.781" x2="548.003" y2="1249.74" gradientUnits="userSpaceOnUse">
            <stop stop-color="#FF1CF7"/>
            <stop offset="1" stop-color="#00F0FF" stop-opacity=".2"/>
        </linearGradient>
        <linearGradient id="ai" x1="286.105" y1="752.23" x2="511.025" y2="1257.41" gradientUnits="userSpaceOnUse">
            <stop stop-color="#FF1CF7"/>
            <stop offset="1" stop-color="#00F0FF" stop-opacity=".2"/>
        </linearGradient>
        <linearGradient id="aj" x1="279.787" y1="757.558" x2="474.242" y2="1264.13" gradientUnits="userSpaceOnUse">
            <stop stop-color="#FF1CF7"/>
            <stop offset="1" stop-color="#00F0FF" stop-opacity=".2"/>
        </linearGradient>
        <linearGradient id="ak" x1="273.237" y1="763.744" x2="437.708" y2="1269.93" gradientUnits="userSpaceOnUse">
            <stop stop-color="#FF1CF7"/>
            <stop offset="1" stop-color="#00F0FF" stop-opacity=".2"/>
        </linearGradient>
        <linearGradient id="al" x1="266.407" y1="770.759" x2="401.475" y2="1274.84" gradientUnits="userSpaceOnUse">
            <stop stop-color="#FF1CF7"/>
            <stop offset="1" stop-color="#00F0FF" stop-opacity=".2"/>
        </linearGradient>
        <linearGradient id="am" x1="259.25" y1="778.576" x2="365.594" y2="1278.89" gradientUnits="userSpaceOnUse">
            <stop stop-color="#FF1CF7"/>
            <stop offset="1" stop-color="#00F0FF" stop-opacity=".2"/>
        </linearGradient>
        <linearGradient id="an" x1="251.721" y1="787.163" x2="330.112" y2="1282.11" gradientUnits="userSpaceOnUse">
            <stop stop-color="#FF1CF7"/>
            <stop offset="1" stop-color="#00F0FF" stop-opacity=".2"/>
        </linearGradient>
        <linearGradient id="ao" x1="243.779" y1="796.485" x2="295.075" y2="1284.53" gradientUnits="userSpaceOnUse">
            <stop stop-color="#FF1CF7"/>
            <stop offset="1" stop-color="#00F0FF" stop-opacity=".2"/>
        </linearGradient>
        <linearGradient id="ap" x1="235.384" y1="806.507" x2="260.524" y2="1286.21" gradientUnits="userSpaceOnUse">
            <stop stop-color="#FF1CF7"/>
            <stop offset="1" stop-color="#00F0FF" stop-opacity=".2"/>
        </linearGradient>
        <linearGradient id="aq" x1="226.5" y1="817.19" x2="226.5" y2="1287.18" gradientUnits="userSpaceOnUse">
            <stop stop-color="#FF1CF7"/>
            <stop offset="1" stop-color="#00F0FF" stop-opacity=".2"/>
        </linearGradient>
    </defs>
</svg>